<svg width="206" height="56" viewBox="0 0 206 56" fill="none" xmlns="http://www.w3.org/2000/svg">
<g clip-path="url(#clip0_6809_2564)">
<path d="M58.2598 56H37.0713C36.7993 56 36.5521 55.864 36.4037 55.6539L24.4125 38.174C24.2395 37.9267 24.2271 37.6053 24.3631 37.3457C24.4991 37.0737 24.7834 36.913 25.0801 36.913H30.6306C30.9026 36.913 31.1498 37.049 31.2982 37.2715L39.8774 49.8313H48.296L38.6783 35.1576C38.5547 34.9722 38.5176 34.7373 38.5671 34.5272C38.6165 34.3046 38.7649 34.1192 38.9626 34.0079L41.1136 32.8088C44.0805 31.1523 46.1574 29.0508 47.307 26.5413C48.3083 24.3408 48.4196 22.264 48.4196 20.8918C48.4196 19.0252 48.1229 15.4402 46.1697 12.3249C43.6231 8.25784 38.9379 6.20574 32.2501 6.20574H8.0823V49.8313H15.3759V15.7369L14.6713 13.9073C14.5724 13.66 14.6094 13.3757 14.7578 13.1532C14.9061 12.9307 15.1534 12.8071 15.4253 12.8071L38.7278 12.77C38.9379 12.77 39.1481 12.8565 39.2964 13.0049C39.4448 13.1532 39.5313 13.3634 39.5313 13.5735V18.9263C39.5313 19.1982 39.3953 19.4455 39.1728 19.5938C38.9503 19.7422 38.666 19.7792 38.4187 19.6804L36.6139 18.951H21.5445V24.8477H34.0426C34.4876 24.8477 34.8461 25.2062 34.8461 25.6512V31.004C34.8461 31.2759 34.7101 31.5232 34.4876 31.6715C34.2651 31.8199 33.9808 31.857 33.7335 31.7457L31.941 31.0163H21.5445V50.4124L23.5843 54.8256C23.7079 55.0728 23.6832 55.3695 23.5348 55.6044C23.3865 55.8393 23.1269 55.9753 22.8549 55.9753H0.80106C0.529095 55.9753 0.281854 55.8393 0.13351 55.6168C-0.0148344 55.3943 -0.0395585 55.1099 0.0593377 54.8627L1.90128 50.4371V5.55055L0.0593377 1.11258C-0.0395585 0.865342 -0.0148344 0.581015 0.13351 0.358499C0.281854 0.135982 0.541457 0 0.80106 0H32.2377C36.9847 0 41.1013 0.890066 44.4514 2.63311C47.3565 4.14128 49.6929 6.29227 51.3989 9.02428C54.1803 13.4499 54.5883 18.3453 54.5883 20.8795C54.5883 23.9329 54.0443 26.6278 52.9194 29.0879C51.6337 31.9188 49.6064 34.3788 46.8991 36.4062L58.9273 54.7514C59.088 54.9987 59.1004 55.3201 58.9644 55.5797C58.8284 55.8393 58.5565 56 58.2598 56Z" fill="black"/>
<path d="M198.133 34.9225H201.174V23.6359H205.303V21.1017H194.017V23.6359H198.133V34.9225ZM187.737 35.1821C191.594 35.1821 193.275 33.2041 193.275 30.979C193.275 28.1233 190.691 27.3569 188.268 26.7017C186.451 26.1949 185.425 25.7993 185.425 24.6991C185.425 23.8708 186.13 23.3145 187.428 23.3145C188.726 23.3145 190.098 24.1057 190.827 25.2801L192.941 23.673C191.965 22.2019 190.283 20.8297 187.44 20.8297C184.597 20.8297 182.446 22.3874 182.446 24.9587C182.446 27.8514 185.029 28.4942 187.49 29.1865C189.307 29.6933 190.296 30.1384 190.296 31.1891C190.296 32.2399 189.282 32.7838 187.885 32.7838C186.29 32.7838 184.906 31.9432 184.139 30.4227L181.84 31.7825C182.866 33.7604 184.733 35.1821 187.724 35.1821M174.633 35.145C178.49 35.145 180.208 33.0187 180.208 29.6068V21.077H177.217V29.545C177.217 31.56 176.463 32.6726 174.67 32.6726C172.878 32.6726 172.086 31.5476 172.086 29.545V21.077H169.045V29.6192C169.045 33.0063 170.788 35.1326 174.633 35.1326M159.452 27.3569V23.5741H161.529C163.285 23.5741 164.125 24.081 164.125 25.4408C164.125 26.8006 163.285 27.3445 161.529 27.3445H159.452V27.3569ZM156.461 34.9225H159.452V29.7057H161.208L164.088 34.9225H167.302L164.224 29.3101C166.078 28.7538 167.105 27.5547 167.105 25.3666C167.105 22.3008 165.065 21.0893 161.665 21.0893H156.473V34.9225H156.461ZM147.449 34.9225H150.49V23.6359H154.619V21.1017H143.332V23.6359H147.449V34.9225ZM130.105 33.0929C128.795 33.0929 127.917 32.3635 127.917 31.0779C127.917 30.2743 128.387 29.6439 129.128 29.137C129.425 29.545 129.759 30.0024 130.105 30.4227C130.785 31.2633 131.391 31.9803 131.996 32.5489C131.44 32.9074 130.797 33.0929 130.105 33.0929ZM130.538 26.232C130.142 25.5026 129.944 24.835 129.944 24.1551C129.944 23.2403 130.488 22.7953 131.156 22.7953C131.922 22.7953 132.182 23.4134 132.182 23.9697C132.182 25.0205 131.489 25.688 130.538 26.232ZM130.08 35.1821C131.687 35.1821 132.961 34.7494 133.987 34.0448C135.235 34.7494 136.607 35.0955 138.4 35.1079V32.6602C137.46 32.6602 136.644 32.4748 135.853 32.0421C136.632 30.7688 137.065 29.2606 137.275 27.8019H134.716C134.58 28.9022 134.283 29.8417 133.838 30.6081C133.369 30.1631 132.862 29.5821 132.33 28.9022C132.033 28.5313 131.737 28.1728 131.49 27.8143C133.171 26.9737 134.679 25.9229 134.679 23.8461C134.679 22.2885 133.616 20.8174 131.094 20.8174C128.387 20.8174 127.175 22.4986 127.175 24.3158C127.175 25.3048 127.509 26.3185 128.053 27.3693C126.372 28.1728 124.876 29.2606 124.876 31.4982C124.876 33.7357 126.656 35.1821 130.093 35.1821H130.08ZM107.73 34.9225H110.771V30.4969L112.291 28.7909L116.012 34.9225H119.449L114.269 26.4916L118.967 21.0893H115.419L110.783 26.813V21.0893H107.742V34.9225H107.73ZM93.2043 34.9225H96.0105V26.0218H96.0476L102.093 34.9225H104.899V21.0893H102.093V29.9158H102.056L96.2577 21.0893H93.2167V34.9225H93.2043ZM83.3888 29.6315L85.0206 24.9216H85.0577L86.6524 29.6315H83.4012H83.3888ZM78.7654 34.9225H81.5716L82.6348 31.8443H87.3447L88.3707 34.9225H91.4489L86.5535 21.0399H83.6608L78.7654 34.9225ZM70.0502 32.6108V28.9392H72.3743C74.0555 28.9392 74.9332 29.5326 74.9332 30.7565C74.9332 31.9803 74.1791 32.6108 72.4979 32.6108H70.0502ZM70.0502 26.8006V23.4505H72.3372C73.969 23.4505 74.6242 24.0439 74.6242 25.1317C74.6242 26.2196 73.8948 26.8006 72.3001 26.8006H70.0502ZM67.0586 34.9225H72.8687C75.4524 34.9225 77.9001 33.8964 77.9001 31.115C77.9001 28.9145 76.5774 28.0368 74.8961 27.7278V27.6907C76.293 27.4063 77.5292 26.4792 77.5292 24.5136C77.5292 21.7074 75.1434 21.0893 72.5968 21.0893H67.0586V34.9225Z" fill="black"/>
</g>
<defs>
<clipPath id="clip0_6809_2564">
<rect width="205.302" height="56" fill="white"/>
</clipPath>
</defs>
</svg>
