<svg width="175" height="25" viewBox="0 0 175 25" fill="none" xmlns="http://www.w3.org/2000/svg">
<g opacity="0.5" clip-path="url(#clip0_7548_12757)">
<path d="M43.7004 22.3002C39.6004 22.3002 37.7004 19.0002 37.7004 15.9002C37.7004 12.7002 39.7004 9.50018 43.8004 9.50018C47.0004 9.50018 49.7004 12.1002 49.7004 16.0002C49.6004 19.7002 46.8004 22.3002 43.7004 22.3002ZM49.4004 10.1002C48.2004 8.80019 46.5004 7.2002 43.5004 7.2002C38.6004 7.2002 34.9004 10.9002 34.9004 16.0002C34.9004 21.4002 38.9004 24.8002 43.4004 24.8002C46.2004 24.8002 48.2004 23.5002 49.4004 22.0002H49.5004V24.2002H52.2004V7.80017H49.5004V10.1002H49.4004Z" fill="black"/>
<path d="M73.3 7.2002C70.4 7.2002 68.4 8.90019 67.6 10.6002C66.9 8.70019 64.8 7.2002 62.2 7.2002C60.1 7.2002 58.4 8.30017 57.3 9.80017H57.2V7.7002H54.5V24.1002H57.2V15.0002C57.2 11.6002 59 9.60019 61.7 9.60019C64.1 9.60019 65.6 11.7002 65.6 14.4002V24.2002H68.4V15.0002C68.4 11.2002 70.6 9.60019 72.9 9.60019C75.7 9.60019 76.9 11.8002 76.9 14.4002V24.2002H79.6V14.6002C79.6 9.70019 77 7.2002 73.3 7.2002Z" fill="black"/>
<path d="M109.8 22.3002C106.6 22.3002 103.8 19.7002 103.8 15.9002C103.8 12.3002 106.3 9.60019 109.8 9.60019C113.4 9.60019 115.8 12.4002 115.8 15.9002C115.8 19.5002 113.3 22.3002 109.8 22.3002ZM109.8 7.2002C104.8 7.2002 101 10.9002 101 16.0002C101 21.0002 104.8 24.8002 109.8 24.8002C114.9 24.8002 118.6 20.8002 118.6 16.0002C118.6 10.9002 114.9 7.2002 109.8 7.2002Z" fill="black"/>
<path d="M129.2 22.3002C126 22.3002 123.2 19.7002 123.2 15.9002C123.2 12.3002 125.7 9.60019 129.2 9.60019C132.8 9.60019 135.2 12.4002 135.2 15.9002C135.1 19.5002 132.6 22.3002 129.2 22.3002ZM129.2 7.2002C124.2 7.2002 120.4 10.9002 120.4 16.0002C120.4 21.0002 124.2 24.8002 129.2 24.8002C134.3 24.8002 138 20.8002 138 16.0002C138 10.9002 134.3 7.2002 129.2 7.2002Z" fill="black"/>
<path d="M150.9 14.7998H142.1V7.7998H140.1V24.1998H142.1V16.5998H150.9V24.1998H152.9V7.7998H150.9V14.7998Z" fill="black"/>
<path d="M157.9 15.4998V9.59982H160.9C163 9.59982 164.2 10.6998 164.2 12.5998C164.2 14.1998 163.1 15.4998 160.9 15.4998H157.9ZM162.4 17.0998C164.5 16.6998 166.2 14.8998 166.2 12.5998C166.2 10.2998 164.7 7.7998 160.6 7.7998H155.9V24.1998H157.9V17.3998H160.1L165.1 24.1998H167.6L162.4 17.0998Z" fill="black"/>
<path d="M168.199 7.7998H170.799V8.19983H169.699V11.3998H169.199V8.19983H168.199V7.7998Z" fill="black"/>
<path d="M173.099 10.2998L174.199 7.7998H174.799L174.999 11.3998H174.499L174.399 8.49982L173.299 10.8998H172.899L171.799 8.49982L171.699 11.3998H171.199L171.399 7.7998H171.999L173.099 10.2998Z" fill="black"/>
<path d="M23.7004 22.5C20.3004 22.5 17.4004 19.8 17.4004 16.2C17.4004 12.6 19.9004 9.60001 23.8004 9.60001C27.8004 9.60001 30.1004 12.8 30.1004 16.1C30.1004 19.7 27.6004 22.5 23.7004 22.5ZM24.0004 7C20.8004 7 19.1004 8.09999 17.9004 9.29999L17.6004 9.60001V-1H14.9004V16.3C14.9004 21.6 19.0004 25 23.7004 25C28.9004 25 32.8004 21 32.8004 15.9C32.9004 11.1 28.7004 7 24.0004 7Z" fill="black"/>
<path d="M90.3996 22.4996C86.9996 22.4996 84.0996 19.7996 84.0996 16.1996C84.0996 12.5996 86.5996 9.59961 90.4996 9.59961C94.4996 9.59961 96.7996 12.7996 96.7996 16.0996C96.6996 19.6996 94.2996 22.4996 90.3996 22.4996ZM90.6996 6.9996C87.4996 6.9996 85.7996 8.09959 84.5996 9.29959L84.2996 9.59961V0.599609H81.5996V16.2996C81.5996 21.5996 85.6996 24.9996 90.3996 24.9996C95.5996 24.9996 99.4996 20.9996 99.4996 15.8996C99.4996 11.0996 95.3996 6.9996 90.6996 6.9996Z" fill="black"/>
<path d="M13.6 10.4998C13.6 10.4998 12.4 10.2998 11.4 10.0998C10.3 9.89979 9.8 9.7998 8.3 9.1998C6.9 8.5998 5.5 7.19979 4.3 5.59979C3 3.99979 0 1.49979 0 1.49979C0 1.49979 0.899994 1.59977 1.89999 1.79977C2.69999 1.99977 4.7 2.5998 6.7 3.6998C7.2 3.8998 7.39999 4.09978 7.89999 4.39978C8.59999 4.79978 9.3 5.4998 10 6.1998C10.8 6.9998 11.5 7.69978 12.1 8.39978C11.4 7.19978 9.69999 2.7998 6.39999 -0.800201C6.09999 -1.2002 8.69999 0.499799 9.39999 1.1998C11.4 3.3998 11.7 4.59979 12.4 6.59979L13.6 10.4998Z" fill="black"/>
</g>
<defs>
<clipPath id="clip0_7548_12757">
<rect width="175" height="25" fill="white"/>
</clipPath>
</defs>
</svg>
