<svg width="20" height="16" viewBox="0 0 20 16" fill="none" xmlns="http://www.w3.org/2000/svg">
<path d="M14 5.5C14 3.3125 12.1875 1.5 10 1.5C7.78125 1.5 6 3.3125 6 5.5C6 6.375 6.25 7.15625 6.6875 7.78125C6.8125 7.96875 6.9375 8.15625 7.09375 8.34375C7.5 8.90625 7.96875 9.5625 8.34375 10.2188C8.65625 10.8125 8.84375 11.4375 8.90625 12H7.40625C7.3125 11.625 7.21875 11.2812 7.03125 10.9375C6.71875 10.375 6.34375 9.84375 5.9375 9.3125C5.78125 9.09375 5.625 8.875 5.46875 8.65625C4.84375 7.75 4.5 6.6875 4.5 5.5C4.5 2.46875 6.9375 0 10 0C13.0312 0 15.5 2.46875 15.5 5.5C15.5 6.6875 15.125 7.75 14.5 8.65625C14.3438 8.875 14.1875 9.09375 14.0312 9.3125C13.6562 9.84375 13.25 10.375 12.9375 10.9375C12.75 11.2812 12.6562 11.625 12.5938 12H11.0625C11.1562 11.4375 11.3125 10.8125 11.625 10.2188C12 9.5625 12.4688 8.90625 12.875 8.34375C13.0312 8.15625 13.1562 7.96875 13.2812 7.78125C13.7188 7.15625 14 6.375 14 5.5ZM8.5 5.5H7.5C7.5 4.125 8.59375 3 10 3V4C9.15625 4 8.5 4.6875 8.5 5.5ZM7.5 16V13H12.5V16H7.5ZM2.71875 0.5L2.90625 0.625L3.65625 1.125L4.28125 1.5625L3.4375 2.8125L2.8125 2.375L2.0625 1.875L1.875 1.75L1.25 1.34375L2.09375 0.09375L2.71875 0.5ZM18.0938 1.75L17.9062 1.875L17.1562 2.375L16.5312 2.8125L15.6875 1.5625L16.3125 1.125L17.0625 0.625L17.25 0.5L17.875 0.09375L18.7188 1.34375L18.0938 1.75ZM0.75 5H2.25H3V6.5H2.25H0.75H0V5H0.75ZM17.75 5H19.25H20V6.5H19.25H17.75H17V5H17.75ZM3.65625 10.375L2.90625 10.875L2.71875 11L2.09375 11.4375L1.25 10.1875L1.875 9.75L2.0625 9.625L2.8125 9.125L3.4375 8.71875L4.28125 9.96875L3.65625 10.375ZM17.1562 9.15625L17.9062 9.65625L18.0938 9.78125L18.7188 10.1875L17.875 11.4375L17.25 11L17.0625 10.875L16.3125 10.375L15.6875 9.96875L16.5312 8.71875L17.1562 9.15625Z" fill="#2772DB"/>
</svg>
