<svg width="80" height="80" viewBox="0 0 80 80" fill="none" xmlns="http://www.w3.org/2000/svg">
<path d="M40 72.5V77.375" stroke="#2772DB" stroke-width="2" stroke-linecap="round" stroke-linejoin="round"/>
<path d="M49.75 57.1758V65.9995C49.75 70.634 45.85 72.4995 40 72.4995C34.15 72.4995 30.25 70.634 30.25 65.9995V57.1758" stroke="#2772DB" stroke-width="2" stroke-linecap="round" stroke-linejoin="round"/>
<path d="M40 56.8903V43.25L33.5 36.75" stroke="#2772DB" stroke-width="2" stroke-linecap="round" stroke-linejoin="round"/>
<path d="M48.1249 57.875C52.0174 56.3319 55.347 53.6388 57.6696 50.1548C59.9923 46.6708 61.1976 42.5616 61.1249 38.375C61.0256 32.8033 58.7681 27.4876 54.8277 23.5472C50.8873 19.6068 45.5716 17.3493 39.9999 17.25C34.4283 17.3493 29.1125 19.6068 25.1722 23.5472C21.2318 27.4876 18.9742 32.8033 18.8749 38.375C18.8023 42.5616 20.0076 46.6708 22.3302 50.1548C24.6529 53.6388 27.9824 56.3319 31.8749 57.875H48.1249Z" stroke="#2772DB" stroke-width="2" stroke-linecap="round" stroke-linejoin="round"/>
<path d="M30.25 64.375H49.75" stroke="#2772DB" stroke-width="2" stroke-linecap="round" stroke-linejoin="round"/>
<path d="M40 2.625V9.125" stroke="#2772DB" stroke-width="2" stroke-linecap="round" stroke-linejoin="round"/>
<path d="M4.25 35.125H11.6958" stroke="#2772DB" stroke-width="2" stroke-linecap="round" stroke-linejoin="round"/>
<path d="M12.375 10.75L18.875 17.25" stroke="#2772DB" stroke-width="2" stroke-linecap="round" stroke-linejoin="round"/>
<path d="M75.7499 35.125H68.3042" stroke="#2772DB" stroke-width="2" stroke-linecap="round" stroke-linejoin="round"/>
<path d="M67.625 10.75L61.125 17.25" stroke="#2772DB" stroke-width="2" stroke-linecap="round" stroke-linejoin="round"/>
<path d="M40 43.25L46.5 36.75" stroke="#2772DB" stroke-width="2" stroke-linecap="round" stroke-linejoin="round"/>
</svg>
