<svg width="49" height="48" viewBox="0 0 49 48" fill="none" xmlns="http://www.w3.org/2000/svg">
<path d="M47.0922 41.5498C47.0922 42.067 46.8867 42.563 46.521 42.9287C46.1553 43.2944 45.6594 43.4998 45.1422 43.4998H4.19219C3.67502 43.4998 3.17903 43.2944 2.81333 42.9287C2.44763 42.563 2.24219 42.067 2.24219 41.5498V14.2498C2.24219 13.7326 2.44763 13.2366 2.81333 12.8709C3.17903 12.5053 3.67502 12.2998 4.19219 12.2998H45.1422C45.6594 12.2998 46.1553 12.5053 46.521 12.8709C46.8867 13.2366 47.0922 13.7326 47.0922 14.2498V41.5498Z" stroke="#2772DB" stroke-width="1.5" stroke-linecap="round" stroke-linejoin="round"/>
<path d="M16.8672 12.3L17.8422 5.475C17.8422 5.21641 17.9449 4.96842 18.1278 4.78557C18.3106 4.60272 18.5586 4.5 18.8172 4.5H30.5172C30.7758 4.5 31.0238 4.60272 31.2066 4.78557C31.3895 4.96842 31.4922 5.21641 31.4922 5.475L32.4672 12.3" stroke="#2772DB" stroke-width="1.5" stroke-linecap="round" stroke-linejoin="round"/>
<path d="M10.043 20.1035H39.293" stroke="#2772DB" stroke-width="1.5" stroke-linecap="round" stroke-linejoin="round"/>
<path d="M10.043 27.9043H39.293" stroke="#2772DB" stroke-width="1.5" stroke-linecap="round" stroke-linejoin="round"/>
<path d="M10.043 35.7041H39.293" stroke="#2772DB" stroke-width="1.5" stroke-linecap="round" stroke-linejoin="round"/>
</svg>
