<svg width="48" height="48" viewBox="0 0 48 48" fill="none" xmlns="http://www.w3.org/2000/svg">
<g clip-path="url(#clip0_6561_13854)">
<path d="M17.1742 26.9252H15.2242L7.42422 34.7252V26.9252H3.52422C3.00705 26.9252 2.51106 26.7197 2.14536 26.3541C1.77966 25.9884 1.57422 25.4924 1.57422 24.9752V3.5252C1.57422 3.00802 1.77966 2.51203 2.14536 2.14634C2.51106 1.78064 3.00705 1.5752 3.52422 1.5752H36.6742C37.1914 1.5752 37.6874 1.78064 38.0531 2.14634C38.4188 2.51203 38.6242 3.00802 38.6242 3.5252V15.2252" stroke="#2772DB" stroke-width="1.5" stroke-linecap="round" stroke-linejoin="round"/>
<path d="M21.0742 36.675C21.0742 37.1922 21.2797 37.6882 21.6454 38.0539C22.0111 38.4196 22.507 38.625 23.0242 38.625H33.7492L42.5242 46.425V38.625H44.4742C44.9914 38.625 45.4874 38.4196 45.8531 38.0539C46.2188 37.6882 46.4242 37.1922 46.4242 36.675V21.075C46.4242 20.5578 46.2188 20.0618 45.8531 19.6961C45.4874 19.3304 44.9914 19.125 44.4742 19.125H23.0242C22.507 19.125 22.0111 19.3304 21.6454 19.6961C21.2797 20.0618 21.0742 20.5578 21.0742 21.075V36.675Z" stroke="#2772DB" stroke-width="1.5" stroke-linecap="round" stroke-linejoin="round"/>
</g>
<defs>
<clipPath id="clip0_6561_13854">
<rect width="48" height="48" fill="white"/>
</clipPath>
</defs>
</svg>
