<svg width="49" height="48" viewBox="0 0 49 48" fill="none" xmlns="http://www.w3.org/2000/svg">
<path d="M5.80625 29.3625C4.77191 29.3625 3.77993 28.9516 3.04853 28.2202C2.31714 27.4888 1.90625 26.4968 1.90625 25.4625C1.90625 24.4282 2.31714 23.4362 3.04853 22.7048C3.77993 21.9734 4.77191 21.5625 5.80625 21.5625" stroke="#2772DB" stroke-width="1.5" stroke-linecap="round" stroke-linejoin="round"/>
<path d="M29.207 43.0127H33.107C36.8783 43.0127 39.932 40.934 39.932 37.1627V35.0859" stroke="#2772DB" stroke-width="1.5" stroke-linecap="round" stroke-linejoin="round"/>
<path d="M23.3555 43.0129C23.3555 43.7886 23.6636 44.5326 24.2122 45.0812C24.7607 45.6297 25.5047 45.9379 26.2805 45.9379C27.0562 45.9379 27.8002 45.6297 28.3488 45.0812C28.8973 44.5326 29.2055 43.7886 29.2055 43.0129C29.2055 42.2371 28.8973 41.4931 28.3488 40.9446C27.8002 40.3961 27.0562 40.0879 26.2805 40.0879C25.5047 40.0879 24.7607 40.3961 24.2122 40.9446C23.6636 41.4931 23.3555 42.2371 23.3555 43.0129Z" stroke="#2772DB" stroke-width="1.5" stroke-linecap="round" stroke-linejoin="round"/>
<path d="M13.6086 35.2129H9.70859C8.67425 35.2129 7.68227 34.802 6.95088 34.0706C6.21949 33.3392 5.80859 32.3472 5.80859 31.3129V19.6129C5.80859 18.5785 6.21949 17.5866 6.95088 16.8552C7.68227 16.1238 8.67425 15.7129 9.70859 15.7129H13.6086V35.2129Z" stroke="#2772DB" stroke-width="1.5" stroke-linecap="round" stroke-linejoin="round"/>
<path d="M42.8555 29.3625C43.8898 29.3625 44.8818 28.9516 45.6132 28.2202C46.3446 27.4888 46.7555 26.4968 46.7555 25.4625C46.7555 24.4282 46.3446 23.4362 45.6132 22.7048C44.8818 21.9734 43.8898 21.5625 42.8555 21.5625" stroke="#2772DB" stroke-width="1.5" stroke-linecap="round" stroke-linejoin="round"/>
<path d="M35.0586 35.2129H38.9586C39.9929 35.2129 40.9849 34.802 41.7163 34.0706C42.4477 33.3392 42.8586 32.3472 42.8586 31.3129V19.6129C42.8586 18.5785 42.4477 17.5866 41.7163 16.8552C40.9849 16.1238 39.9929 15.7129 38.9586 15.7129H35.0586V35.2129Z" stroke="#2772DB" stroke-width="1.5" stroke-linecap="round" stroke-linejoin="round"/>
<path d="M10.6836 15.7125C10.6836 12.0923 12.1217 8.62036 14.6816 6.06049C17.2415 3.50062 20.7134 2.0625 24.3336 2.0625C27.9538 2.0625 31.4257 3.50062 33.9856 6.06049C36.5455 8.62036 37.9836 12.0923 37.9836 15.7125" stroke="#2772DB" stroke-width="1.5" stroke-linecap="round" stroke-linejoin="round"/>
</svg>
