<svg width="64" height="64" viewBox="0 0 64 64" fill="none" xmlns="http://www.w3.org/2000/svg">
<path d="M12.8325 52.4458C12.8325 52.1069 12.6979 51.7819 12.4583 51.5422C12.2186 51.3026 11.8936 51.168 11.5547 51.168H6.44336C6.10446 51.168 5.77944 51.3026 5.5398 51.5422C5.30016 51.7819 5.16553 52.1069 5.16553 52.4458V61.3906H12.8325V52.4458Z" stroke="#003066" stroke-width="2" stroke-linecap="round" stroke-linejoin="round"/>
<path d="M28.1665 39.6675C28.1665 39.3286 28.0319 39.0036 27.7922 38.7639C27.5526 38.5243 27.2276 38.3896 26.8887 38.3896H21.7773C21.4384 38.3896 21.1134 38.5243 20.8738 38.7639C20.6341 39.0036 20.4995 39.3286 20.4995 39.6675V61.3906H28.1665V39.6675Z" stroke="#003066" stroke-width="2" stroke-linecap="round" stroke-linejoin="round"/>
<path d="M43.5005 47.3345C43.5005 46.9956 43.3659 46.6705 43.1262 46.4309C42.8866 46.1913 42.5616 46.0566 42.2227 46.0566H37.1113C36.7724 46.0566 36.4474 46.1913 36.2078 46.4309C35.9681 46.6705 35.8335 46.9956 35.8335 47.3345V61.3906H43.5005V47.3345Z" stroke="#003066" stroke-width="2" stroke-linecap="round" stroke-linejoin="round"/>
<path d="M58.8345 26.8882C58.8345 26.5493 58.6998 26.2243 58.4602 25.9846C58.2206 25.745 57.8955 25.6104 57.5566 25.6104H52.4453C52.1064 25.6104 51.7814 25.745 51.5417 25.9846C51.3021 26.2243 51.1675 26.5493 51.1675 26.8882V61.3897H58.8345V26.8882Z" stroke="#003066" stroke-width="2" stroke-linecap="round" stroke-linejoin="round"/>
<path d="M2.62012 61.3906H61.4005" stroke="#003066" stroke-width="2" stroke-linecap="round" stroke-linejoin="round"/>
<path d="M11.3452 23.275L18.174 16.4463" stroke="#003066" stroke-width="2" stroke-linecap="round" stroke-linejoin="round"/>
<path d="M26.2039 15.4082L32.7055 19.2008" stroke="#003066" stroke-width="2" stroke-linecap="round" stroke-linejoin="round"/>
<path d="M41.1416 18.6184L50.9911 10.8799" stroke="#003066" stroke-width="2" stroke-linecap="round" stroke-linejoin="round"/>
<path d="M49.8999 7.72071C49.8999 8.39194 50.0321 9.0566 50.289 9.67673C50.5458 10.2969 50.9223 10.8603 51.397 11.335C51.8716 11.8096 52.4351 12.1861 53.0552 12.443C53.6753 12.6998 54.34 12.832 55.0112 12.832C55.6825 12.832 56.3471 12.6998 56.9673 12.443C57.5874 12.1861 58.1509 11.8096 58.6255 11.335C59.1001 10.8603 59.4766 10.2969 59.7335 9.67673C59.9904 9.0566 60.1226 8.39194 60.1226 7.72071C60.1226 6.3651 59.5841 5.06501 58.6255 4.10645C57.6669 3.14789 56.3668 2.60938 55.0112 2.60938C53.6556 2.60938 52.3555 3.14789 51.397 4.10645C50.4384 5.06501 49.8999 6.3651 49.8999 7.72071Z" stroke="#003066" stroke-width="2" stroke-linecap="round" stroke-linejoin="round"/>
<path d="M32.0103 21.7773C32.0103 23.133 32.5488 24.433 33.5073 25.3916C34.4659 26.3502 35.766 26.8887 37.1216 26.8887C38.4772 26.8887 39.7773 26.3502 40.7358 25.3916C41.6944 24.433 42.2329 23.133 42.2329 21.7773C42.2329 20.4217 41.6944 19.1217 40.7358 18.1631C39.7773 17.2045 38.4772 16.666 37.1216 16.666C35.766 16.666 34.4659 17.2045 33.5073 18.1631C32.5488 19.1217 32.0103 20.4217 32.0103 21.7773Z" stroke="#003066" stroke-width="2" stroke-linecap="round" stroke-linejoin="round"/>
<path d="M16.6763 12.832C16.6763 13.5033 16.8085 14.1679 17.0653 14.7881C17.3222 15.4082 17.6987 15.9717 18.1733 16.4463C18.648 16.9209 19.2114 17.2974 19.8316 17.5543C20.4517 17.8112 21.1164 17.9434 21.7876 17.9434C22.4588 17.9434 23.1235 17.8112 23.7436 17.5543C24.3638 17.2974 24.9272 16.9209 25.4019 16.4463C25.8765 15.9717 26.253 15.4082 26.5099 14.7881C26.7667 14.1679 26.8989 13.5033 26.8989 12.832C26.8989 12.1608 26.7667 11.4961 26.5099 10.876C26.253 10.2559 25.8765 9.69241 25.4019 9.21778C24.9272 8.74315 24.3638 8.36665 23.7436 8.10978C23.1235 7.85291 22.4588 7.7207 21.7876 7.7207C21.1164 7.7207 20.4517 7.85291 19.8316 8.10978C19.2114 8.36665 18.648 8.74315 18.1733 9.21778C17.6987 9.69241 17.3222 10.2559 17.0653 10.876C16.8085 11.4961 16.6763 12.1608 16.6763 12.832Z" stroke="#003066" stroke-width="2" stroke-linecap="round" stroke-linejoin="round"/>
<path d="M2.62012 26.8887C2.62012 27.5599 2.75233 28.2246 3.00919 28.8447C3.26606 29.4648 3.64256 30.0283 4.11719 30.5029C4.59182 30.9776 5.15529 31.3541 5.77543 31.6109C6.39556 31.8678 7.06022 32 7.73145 32C8.40268 32 9.06734 31.8678 9.68747 31.6109C10.3076 31.3541 10.8711 30.9776 11.3457 30.5029C11.8203 30.0283 12.1968 29.4648 12.4537 28.8447C12.7106 28.2246 12.8428 27.5599 12.8428 26.8887C12.8428 26.2174 12.7106 25.5528 12.4537 24.9327C12.1968 24.3125 11.8203 23.749 11.3457 23.2744C10.8711 22.7998 10.3076 22.4233 9.68747 22.1664C9.06734 21.9096 8.40268 21.7773 7.73145 21.7773C7.06022 21.7773 6.39556 21.9096 5.77543 22.1664C5.15529 22.4233 4.59182 22.7998 4.11719 23.2744C3.64256 23.749 3.26606 24.3125 3.00919 24.9327C2.75233 25.5528 2.62012 26.2174 2.62012 26.8887Z" stroke="#003066" stroke-width="2" stroke-linecap="round" stroke-linejoin="round"/>
</svg>
