<svg width="22" height="23" viewBox="0 0 22 23" fill="none" xmlns="http://www.w3.org/2000/svg">
<path d="M6.875 17.25C7.60547 17.25 8.25 17.8945 8.25 18.625V20.6875L12.4609 17.5508C12.6758 17.3789 12.9766 17.25 13.2773 17.25H19.25C19.9805 17.25 20.625 16.6484 20.625 15.875V3.5C20.625 2.76953 19.9805 2.125 19.25 2.125H2.75C1.97656 2.125 1.375 2.76953 1.375 3.5V15.875C1.375 16.6484 1.97656 17.25 2.75 17.25H6.875ZM0 3.5C0 1.99609 1.20312 0.75 2.75 0.75H19.25C20.7539 0.75 22 1.99609 22 3.5V15.875C22 17.4219 20.7539 18.625 19.25 18.625H13.2773L7.94922 22.6211C7.73438 22.793 7.47656 22.793 7.21875 22.707C7.00391 22.5781 6.875 22.3633 6.875 22.0625V20V18.625H5.5H2.75C1.20312 18.625 0 17.4219 0 15.875V3.5Z" fill="#2772DB"/>
</svg>
