<svg width="64" height="64" viewBox="0 0 64 64" fill="none" xmlns="http://www.w3.org/2000/svg">
<path d="M2.60986 31.9995C2.60986 35.8591 3.37006 39.6809 4.84706 43.2467C6.32405 46.8125 8.48891 50.0524 11.218 52.7815C13.9472 55.5107 17.1871 57.6755 20.7529 59.1525C24.3187 60.6295 28.1405 61.3897 32 61.3897C35.8596 61.3897 39.6814 60.6295 43.2472 59.1525C46.8129 57.6755 50.0529 55.5107 52.782 52.7815C55.5111 50.0524 57.676 46.8125 59.153 43.2467C60.63 39.6809 61.3902 35.8591 61.3902 31.9995C61.3902 28.14 60.63 24.3182 59.153 20.7524C57.676 17.1866 55.5111 13.9467 52.782 11.2176C50.0529 8.48843 46.8129 6.32356 43.2472 4.84657C39.6814 3.36957 35.8596 2.60938 32 2.60938C28.1405 2.60938 24.3187 3.36957 20.7529 4.84657C17.1871 6.32356 13.9472 8.48843 11.218 11.2176C8.48891 13.9467 6.32405 17.1866 4.84706 20.7524C3.37006 24.3182 2.60986 28.14 2.60986 31.9995Z" stroke="#6F2276" stroke-width="1.75" stroke-linecap="round" stroke-linejoin="round"/>
<path d="M26.8887 32C26.8887 32.6712 27.0209 33.3359 27.2777 33.956C27.5346 34.5762 27.9111 35.1396 28.3857 35.6143C28.8604 36.0889 29.4238 36.4654 30.044 36.7223C30.6641 36.9791 31.3288 37.1113 32 37.1113C32.6712 37.1113 33.3359 36.9791 33.956 36.7223C34.5762 36.4654 35.1396 36.0889 35.6143 35.6143C36.0889 35.1396 36.4654 34.5762 36.7223 33.956C36.9791 33.3359 37.1113 32.6712 37.1113 32C37.1113 30.6444 36.5728 29.3443 35.6143 28.3857C34.6557 27.4272 33.3556 26.8887 32 26.8887C30.6444 26.8887 29.3443 27.4272 28.3857 28.3857C27.4272 29.3443 26.8887 30.6444 26.8887 32Z" stroke="#6F2276" stroke-width="1.75" stroke-linecap="round" stroke-linejoin="round"/>
<path d="M32 7.7207V10.2764" stroke="#6F2276" stroke-width="1.75" stroke-linecap="round" stroke-linejoin="round"/>
<path d="M56.2788 32H53.7231" stroke="#6F2276" stroke-width="1.75" stroke-linecap="round" stroke-linejoin="round"/>
<path d="M49.1739 49.1739L47.3594 47.3594" stroke="#6F2276" stroke-width="1.75" stroke-linecap="round" stroke-linejoin="round"/>
<path d="M32 56.2793V53.7236" stroke="#6F2276" stroke-width="1.75" stroke-linecap="round" stroke-linejoin="round"/>
<path d="M7.72119 32H10.2769" stroke="#6F2276" stroke-width="1.75" stroke-linecap="round" stroke-linejoin="round"/>
<path d="M14.8257 14.8262L16.6402 16.6407" stroke="#6F2276" stroke-width="1.75" stroke-linecap="round" stroke-linejoin="round"/>
<path d="M48.8161 18.3781C48.9528 17.934 48.9659 17.4611 48.8539 17.0102C48.742 16.5593 48.5092 16.1474 48.1807 15.8188C47.8522 15.4903 47.4403 15.2576 46.9893 15.1456C46.5384 15.0337 46.0655 15.0468 45.6215 15.1835L24.3328 22.4927C23.909 22.6442 23.5242 22.8878 23.206 23.206C22.8878 23.5242 22.6442 23.909 22.4927 24.3328L15.1835 45.6215C15.0468 46.0655 15.0337 46.5384 15.1456 46.9893C15.2576 47.4403 15.4903 47.8522 15.8188 48.1807C16.1474 48.5092 16.5593 48.742 17.0102 48.8539C17.4611 48.9659 17.934 48.9528 18.3781 48.8161L39.6668 41.5068C40.0832 41.3549 40.4613 41.1138 40.7748 40.8003C41.0882 40.4869 41.3293 40.1087 41.4813 39.6923L48.8161 18.3781Z" stroke="#6F2276" stroke-width="1.75" stroke-linecap="round" stroke-linejoin="round"/>
</svg>
