<svg width="64" height="64" viewBox="0 0 64 64" fill="none" xmlns="http://www.w3.org/2000/svg">
<path d="M6 38.5002C6 40.5689 6.82178 42.5528 8.28457 44.0156C9.74735 45.4784 11.7313 46.3002 13.8 46.3002C15.8687 46.3002 17.8526 45.4784 19.3154 44.0156C20.7782 42.5528 21.6 40.5689 21.6 38.5002C21.6 36.4315 20.7782 34.4475 19.3154 32.9848C17.8526 31.522 15.8687 30.7002 13.8 30.7002C11.7313 30.7002 9.74735 31.522 8.28457 32.9848C6.82178 34.4475 6 36.4315 6 38.5002Z" stroke="#6F2276" stroke-width="1.75" stroke-linecap="round" stroke-linejoin="round"/>
<path d="M25.5001 61.9002C25.5001 58.7972 24.2674 55.8212 22.0732 53.627C19.8791 51.4329 16.9031 50.2002 13.8001 50.2002C10.6971 50.2002 7.72112 51.4329 5.52695 53.627C3.33277 55.8212 2.1001 58.7972 2.1001 61.9002" stroke="#6F2276" stroke-width="1.75" stroke-linecap="round" stroke-linejoin="round"/>
<path d="M28.1001 41.6021C28.1001 43.3391 28.7901 45.005 30.0184 46.2333C31.2466 47.4615 32.9125 48.1515 34.6495 48.1515C36.3865 48.1515 38.0524 47.4615 39.2806 46.2333C40.5089 45.005 41.1989 43.3391 41.1989 41.6021C41.1989 39.8651 40.5089 38.1993 39.2806 36.971C38.0524 35.7428 36.3865 35.0527 34.6495 35.0527C32.9125 35.0527 31.2466 35.7428 30.0184 36.971C28.7901 38.1993 28.1001 39.8651 28.1001 41.6021Z" stroke="#6F2276" stroke-width="1.75" stroke-linecap="round" stroke-linejoin="round"/>
<path d="M44.4799 61.8996C44.4794 60.121 43.9961 58.3759 43.0815 56.8504C42.167 55.3249 40.8555 54.0763 39.2869 53.2377C37.7184 52.3992 35.9517 52.0021 34.1752 52.0888C32.3987 52.1756 30.679 52.743 29.1997 53.7304" stroke="#6F2276" stroke-width="1.75" stroke-linecap="round" stroke-linejoin="round"/>
<path d="M49.29 47.1399C49.29 47.7293 49.4061 48.3128 49.6316 48.8573C49.8572 49.4017 50.1877 49.8964 50.6044 50.3132C51.0211 50.7299 51.5159 51.0604 52.0603 51.2859C52.6048 51.5115 53.1883 51.6275 53.7776 51.6275C54.367 51.6275 54.9505 51.5115 55.495 51.2859C56.0394 51.0604 56.5341 50.7299 56.9509 50.3132C57.3676 49.8964 57.6981 49.4017 57.9236 48.8573C58.1492 48.3128 58.2652 47.7293 58.2652 47.1399C58.2652 45.9498 57.7924 44.8083 56.9509 43.9667C56.1093 43.1251 54.9678 42.6523 53.7776 42.6523C52.5875 42.6523 51.446 43.1251 50.6044 43.9667C49.7628 44.8083 49.29 45.9498 49.29 47.1399Z" stroke="#6F2276" stroke-width="1.75" stroke-linecap="round" stroke-linejoin="round"/>
<path d="M60.5062 61.8998C60.5059 60.6813 60.1749 59.4857 59.5484 58.4406C58.922 57.3955 58.0236 56.54 56.9491 55.9654C55.8747 55.3908 54.6643 55.1186 53.4473 55.1779C52.2303 55.2372 51.0521 55.6257 50.0386 56.302" stroke="#6F2276" stroke-width="1.75" stroke-linecap="round" stroke-linejoin="round"/>
<path d="M9.8999 2.09961V25.4996" stroke="#6F2276" stroke-width="1.75" stroke-linecap="round" stroke-linejoin="round"/>
<path d="M43.6998 15.0996H61.8998L54.0998 21.5996L61.8998 28.0996H38.4998C37.1207 28.0996 35.798 27.5518 34.8228 26.5766C33.8477 25.6014 33.2998 24.2787 33.2998 22.8996V20.2996" stroke="#6F2276" stroke-width="1.75" stroke-linecap="round" stroke-linejoin="round"/>
<path d="M42.3999 5.99961V18.9996C42.3999 17.9653 41.989 16.9733 41.2576 16.2419C40.5262 15.5105 39.5342 15.0996 38.4999 15.0996H9.8999V2.09961H38.4999C39.5342 2.09961 40.5262 2.5105 41.2576 3.24189C41.989 3.97328 42.3999 4.96526 42.3999 5.99961Z" stroke="#6F2276" stroke-width="1.75" stroke-linecap="round" stroke-linejoin="round"/>
</svg>
