<svg width="64" height="64" viewBox="0 0 64 64" fill="none" xmlns="http://www.w3.org/2000/svg">
<path d="M32 58V61.9" stroke="#6F2276" stroke-width="1.75" stroke-linecap="round" stroke-linejoin="round"/>
<path d="M39.8002 45.7412V52.8002C39.8002 56.5078 36.6802 58.0002 32.0002 58.0002C27.3202 58.0002 24.2002 56.5078 24.2002 52.8002V45.7412" stroke="#6F2276" stroke-width="1.75" stroke-linecap="round" stroke-linejoin="round"/>
<path d="M31.9998 45.5126V34.6004L26.7998 29.4004" stroke="#6F2276" stroke-width="1.75" stroke-linecap="round" stroke-linejoin="round"/>
<path d="M38.5001 46.2998C41.6141 45.0653 44.2778 42.9108 46.1359 40.1236C47.994 37.3365 48.9583 34.0491 48.9001 30.6998C48.8207 26.2425 47.0147 21.9899 43.8624 18.8376C40.71 15.6853 36.4575 13.8792 32.0001 13.7998C27.5428 13.8792 23.2902 15.6853 20.1379 18.8376C16.9856 21.9899 15.1796 26.2425 15.1001 30.6998C15.042 34.0491 16.0063 37.3365 17.8644 40.1236C19.7225 42.9108 22.3862 45.0653 25.5001 46.2998H38.5001Z" stroke="#6F2276" stroke-width="1.75" stroke-linecap="round" stroke-linejoin="round"/>
<path d="M24.2002 51.5H39.8002" stroke="#6F2276" stroke-width="1.75" stroke-linecap="round" stroke-linejoin="round"/>
<path d="M32 2.09961V7.29961" stroke="#6F2276" stroke-width="1.75" stroke-linecap="round" stroke-linejoin="round"/>
<path d="M3.3999 28.0996H9.3565" stroke="#6F2276" stroke-width="1.75" stroke-linecap="round" stroke-linejoin="round"/>
<path d="M9.8999 8.59961L15.0999 13.7996" stroke="#6F2276" stroke-width="1.75" stroke-linecap="round" stroke-linejoin="round"/>
<path d="M60.6002 28.0996H54.6436" stroke="#6F2276" stroke-width="1.75" stroke-linecap="round" stroke-linejoin="round"/>
<path d="M54.0999 8.59961L48.8999 13.7996" stroke="#6F2276" stroke-width="1.75" stroke-linecap="round" stroke-linejoin="round"/>
<path d="M32 34.6004L37.2 29.4004" stroke="#6F2276" stroke-width="1.75" stroke-linecap="round" stroke-linejoin="round"/>
</svg>
