<svg width="22" height="24" viewBox="0 0 22 24" fill="none" xmlns="http://www.w3.org/2000/svg">
<path d="M20.625 11.75C20.625 8.3125 18.7773 5.17578 15.8125 3.45703C12.8047 1.69531 9.15234 1.69531 6.1875 3.45703C3.17969 5.17578 1.375 8.3125 1.375 11.75C1.375 15.2305 3.17969 18.3672 6.1875 20.0859C9.15234 21.8477 12.8047 21.8477 15.8125 20.0859C18.7773 18.3672 20.625 15.2305 20.625 11.75ZM0 11.75C0 7.83984 2.0625 4.23047 5.5 2.25391C8.89453 0.277344 13.0625 0.277344 16.5 2.25391C19.8945 4.23047 22 7.83984 22 11.75C22 15.7031 19.8945 19.3125 16.5 21.2891C13.0625 23.2656 8.89453 23.2656 5.5 21.2891C2.0625 19.3125 0 15.7031 0 11.75ZM11.6875 5.90625V6.89453C12.2461 6.9375 12.8047 7.10938 13.3633 7.28125C13.4492 7.28125 13.4922 7.32422 13.5781 7.32422C13.9219 7.41016 14.1367 7.79688 14.0508 8.18359C13.9648 8.52734 13.5781 8.74219 13.1914 8.65625C13.1055 8.61328 12.9766 8.61328 12.8906 8.57031C12.5898 8.48438 12.2461 8.35547 11.9023 8.3125C11.0859 8.22656 10.3555 8.3125 9.79688 8.52734C9.23828 8.78516 8.98047 9.12891 8.9375 9.38672C8.85156 9.81641 9.02344 10.0742 9.36719 10.332C9.83984 10.5898 10.5273 10.8047 11.3438 11.0195V11.0625C12.1172 11.2773 13.0195 11.5352 13.707 11.9648C14.5234 12.5234 14.8672 13.4258 14.6953 14.4141C14.5234 15.3164 13.8789 15.9609 13.0625 16.2617C12.6758 16.4336 12.1602 16.5625 11.6445 16.5625V17.5938C11.6445 17.9805 11.3438 18.2812 10.957 18.2812C10.6133 18.2812 10.2695 17.9805 10.2695 17.5938V16.5195C9.92578 16.4336 9.36719 16.2617 8.89453 16.1328C8.59375 16.0469 8.29297 15.9609 7.99219 15.875C7.64844 15.7461 7.43359 15.3594 7.5625 14.9727C7.69141 14.6289 8.07812 14.457 8.42188 14.543C8.72266 14.6289 8.98047 14.7578 9.28125 14.8438C9.75391 14.9727 10.2695 15.1016 10.4844 15.1445C11.3438 15.2734 12.0742 15.1875 12.5469 15.0156C13.0195 14.8008 13.2773 14.5 13.3633 14.1562C13.4062 13.6836 13.2773 13.3398 12.8906 13.082C12.375 12.7383 11.7734 12.5664 11.1289 12.3945C11.043 12.3945 10.957 12.3516 10.8711 12.3086C10.0977 12.1367 9.28125 11.8789 8.63672 11.4492C8.29297 11.2344 7.94922 10.9336 7.73438 10.5469C7.51953 10.1172 7.47656 9.64453 7.5625 9.12891C7.73438 8.22656 8.42188 7.625 9.23828 7.28125C9.53906 7.15234 9.92578 7.02344 10.2695 6.98047V5.90625C10.2695 5.5625 10.5703 5.21875 10.957 5.21875C11.3438 5.21875 11.6445 5.5625 11.6445 5.90625H11.6875Z" fill="#2772DB"/>
</svg>
