<svg width="525" height="487" viewBox="0 0 525 487" fill="none" xmlns="http://www.w3.org/2000/svg">
<path d="M517.905 497.375H329.548C327.13 497.375 324.932 496.168 323.614 494.303L217.017 339.169C215.479 336.975 215.369 334.122 216.578 331.818C217.786 329.404 220.314 327.978 222.951 327.978H272.294C274.711 327.978 276.909 329.185 278.228 331.16L354.494 442.628H429.331L343.834 312.399C342.735 310.753 342.405 308.669 342.845 306.803C343.285 304.829 344.603 303.183 346.362 302.196L365.483 291.553C391.857 276.852 410.32 258.201 420.54 235.929C429.441 216.4 430.43 197.968 430.43 185.79C430.43 169.223 427.793 137.407 410.429 109.759C387.791 73.6633 346.142 55.4509 286.69 55.4509H71.8482V442.628H136.685V140.04L130.421 123.802C129.542 121.608 129.872 119.085 131.191 117.11C132.509 115.135 134.707 114.038 137.125 114.038L344.274 113.709C346.142 113.709 348.01 114.477 349.329 115.793C350.647 117.11 351.417 118.975 351.417 120.84V168.346C351.417 170.759 350.208 172.954 348.23 174.27C346.252 175.587 343.724 175.916 341.526 175.038L325.482 168.565H191.522V220.898H302.624C306.58 220.898 309.767 224.08 309.767 228.03V275.535C309.767 277.949 308.558 280.143 306.58 281.46C304.602 282.776 302.075 283.105 299.877 282.118L283.942 275.645H191.522V447.785L209.654 486.952C210.753 489.147 210.534 491.78 209.215 493.864C207.896 495.949 205.588 497.156 203.171 497.156H7.12108C4.70343 497.156 2.50557 495.949 1.18685 493.974C-0.131872 491.999 -0.351658 489.476 0.527488 487.281L16.9016 448.004V49.6361L0.527488 10.2492C-0.351658 8.05491 -0.131872 5.53151 1.18685 3.55668C2.50557 1.58184 4.81333 0.375 7.12108 0.375H286.58C328.779 0.375 365.373 8.27434 395.154 23.7439C420.979 37.1289 441.749 56.2189 456.914 80.4655C481.64 119.743 485.267 163.189 485.267 185.68C485.267 212.779 480.431 236.697 470.431 258.53C459.002 283.654 440.98 305.487 416.913 323.48L523.839 486.294C525.268 488.488 525.378 491.341 524.169 493.645C522.96 495.949 520.542 497.375 517.905 497.375Z" fill="white"/>
</svg>
