<svg width="25" height="23" viewBox="0 0 25 23" fill="none" xmlns="http://www.w3.org/2000/svg">
<path d="M13.75 21.375C14.4805 21.375 15.125 20.7734 15.125 20V19.5703L16.5 19.2266V20C16.5 21.5469 15.2539 22.75 13.75 22.75H2.75C1.20312 22.75 0 21.5469 0 20V3.5C0 1.99609 1.20312 0.75 2.75 0.75H9.45312C9.96875 0.75 10.5273 1.00781 10.9141 1.39453L15.8555 6.33594C16.2422 6.72266 16.5 7.28125 16.5 7.79688V8.87109L15.125 10.2461V9H10.3125C9.15234 9 8.25 8.09766 8.25 6.9375V2.125H2.75C1.97656 2.125 1.375 2.76953 1.375 3.5V20C1.375 20.7734 1.97656 21.375 2.75 21.375H13.75ZM10.3125 7.625H15.082C15.0391 7.53906 14.9961 7.41016 14.9102 7.32422L9.92578 2.33984C9.83984 2.25391 9.71094 2.21094 9.625 2.16797V6.9375C9.625 7.32422 9.92578 7.625 10.3125 7.625ZM6.1875 15.7461L5.75781 17.1641C5.5 18.0664 4.68359 18.625 3.78125 18.625H3.4375C3.05078 18.625 2.75 18.3242 2.75 17.9375C2.75 17.5938 3.05078 17.25 3.4375 17.25H3.78125C4.08203 17.25 4.33984 17.0781 4.42578 16.7773L5.07031 14.6719C5.19922 14.1562 5.67188 13.8125 6.1875 13.8125C6.66016 13.8125 7.13281 14.1562 7.26172 14.6719L7.82031 16.4766C8.12109 16.0898 8.55078 15.918 9.02344 15.918C9.625 15.918 10.1836 16.2617 10.4844 16.7773L10.6992 17.293H12.5039L13.1914 14.5859C13.2773 14.2422 13.4492 13.8984 13.707 13.6406L20.3242 7.02344C21.1406 6.20703 22.4297 6.20703 23.2461 7.02344L23.9766 7.75391C24.793 8.57031 24.793 9.85938 23.9766 10.6758L17.4023 17.293C17.1016 17.5508 16.8008 17.7227 16.4141 17.8086L13.1914 18.625C13.1055 18.668 13.0195 18.668 12.9336 18.625H10.3125C10.0117 18.625 9.79688 18.4961 9.66797 18.2812L9.23828 17.3789C9.19531 17.3359 9.10938 17.25 9.02344 17.25C8.98047 17.25 8.89453 17.293 8.85156 17.3789L8.07812 18.3672C7.94922 18.582 7.69141 18.668 7.43359 18.625C7.17578 18.582 6.96094 18.4102 6.875 18.1523L6.1875 15.7461ZM22.2578 7.96875C22 7.71094 21.5703 7.71094 21.3125 7.96875L20.2383 9.04297L21.957 10.7617L23.0312 9.6875C23.2891 9.42969 23.2891 9 23.0312 8.74219L22.2578 7.96875ZM14.6953 14.5859C14.6094 14.6719 14.5664 14.8008 14.5234 14.9297L14.0078 17.0352L16.1133 16.4766C16.1992 16.4766 16.3281 16.3906 16.4141 16.3047L20.9688 11.75L19.25 10.0312L14.6953 14.5859Z" fill="#2772DB"/>
</svg>
