<svg width="20" height="20" viewBox="0 0 20 20" fill="none" xmlns="http://www.w3.org/2000/svg">
<path d="M2.4375 1.5C2.05078 1.5 1.75 1.84375 1.75 2.1875V6.3125C1.75 6.69922 2.05078 7 2.4375 7H6.5625C6.90625 7 7.25 6.69922 7.25 6.3125V2.1875C7.25 1.84375 6.90625 1.5 6.5625 1.5H2.4375ZM0.375 2.1875C0.375 1.07031 1.27734 0.125 2.4375 0.125H6.5625C7.67969 0.125 8.625 1.07031 8.625 2.1875V6.3125C8.625 7.47266 7.67969 8.375 6.5625 8.375H2.4375C1.27734 8.375 0.375 7.47266 0.375 6.3125V2.1875ZM2.4375 12.5C2.05078 12.5 1.75 12.8438 1.75 13.1875V17.3125C1.75 17.6992 2.05078 18 2.4375 18H6.5625C6.90625 18 7.25 17.6992 7.25 17.3125V13.1875C7.25 12.8438 6.90625 12.5 6.5625 12.5H2.4375ZM0.375 13.1875C0.375 12.0703 1.27734 11.125 2.4375 11.125H6.5625C7.67969 11.125 8.625 12.0703 8.625 13.1875V17.3125C8.625 18.4727 7.67969 19.375 6.5625 19.375H2.4375C1.27734 19.375 0.375 18.4727 0.375 17.3125V13.1875ZM17.5625 1.5H13.4375C13.0508 1.5 12.75 1.84375 12.75 2.1875V6.3125C12.75 6.69922 13.0508 7 13.4375 7H17.5625C17.9062 7 18.25 6.69922 18.25 6.3125V2.1875C18.25 1.84375 17.9062 1.5 17.5625 1.5ZM13.4375 0.125H17.5625C18.6797 0.125 19.625 1.07031 19.625 2.1875V6.3125C19.625 7.47266 18.6797 8.375 17.5625 8.375H13.4375C12.2773 8.375 11.375 7.47266 11.375 6.3125V2.1875C11.375 1.07031 12.2773 0.125 13.4375 0.125ZM13.4375 12.5C13.0508 12.5 12.75 12.8438 12.75 13.1875V17.3125C12.75 17.6992 13.0508 18 13.4375 18H17.5625C17.9062 18 18.25 17.6992 18.25 17.3125V13.1875C18.25 12.8438 17.9062 12.5 17.5625 12.5H13.4375ZM11.375 13.1875C11.375 12.0703 12.2773 11.125 13.4375 11.125H17.5625C18.6797 11.125 19.625 12.0703 19.625 13.1875V17.3125C19.625 18.4727 18.6797 19.375 17.5625 19.375H13.4375C12.2773 19.375 11.375 18.4727 11.375 17.3125V13.1875Z" fill="#2772DB"/>
</svg>
