<svg width="766" height="726" viewBox="0 0 766 726" fill="none" xmlns="http://www.w3.org/2000/svg">
<path d="M755.648 726H480.826C477.299 726 474.092 724.237 472.168 721.513L316.638 494.898C314.394 491.693 314.233 487.526 315.997 484.16C317.761 480.634 321.449 478.551 325.297 478.551H397.289C400.817 478.551 404.023 480.314 405.948 483.199L517.223 646.028H626.414L501.67 455.793C500.067 453.389 499.586 450.344 500.227 447.62C500.869 444.735 502.793 442.331 505.358 440.889L533.257 425.343C571.739 403.868 598.676 376.623 613.587 344.089C626.575 315.562 628.018 288.637 628.018 270.848C628.018 246.648 624.17 200.171 598.836 159.784C565.806 107.057 505.037 80.453 418.294 80.453H104.83V646.028H199.43V204.017L190.291 180.298C189.008 177.093 189.489 173.407 191.413 170.522C193.337 167.637 196.544 166.034 200.072 166.034L502.312 165.554C505.037 165.554 507.763 166.676 509.687 168.599C511.611 170.522 512.734 173.246 512.734 175.971V245.366C512.734 248.891 510.97 252.097 508.084 254.02C505.198 255.943 501.51 256.424 498.303 255.142L474.894 245.686H279.44V322.132H441.543C447.315 322.132 451.965 326.78 451.965 332.55V401.944C451.965 405.47 450.201 408.676 447.315 410.599C444.429 412.522 440.741 413.003 437.534 411.56L414.285 402.105H279.44V653.56L305.896 710.775C307.499 713.98 307.178 717.827 305.254 720.872C303.33 723.917 299.963 725.68 296.436 725.68H10.39C6.86253 725.68 3.65574 723.917 1.73167 721.032C-0.192408 718.147 -0.513086 714.461 0.76963 711.256L24.6602 653.881V71.9589L0.76963 14.4238C-0.513086 11.2185 -0.192408 7.53245 1.73167 4.64768C3.65574 1.76291 7.02287 0 10.39 0H418.133C479.704 0 533.097 11.5391 576.549 34.1364C614.229 53.6887 644.533 81.5748 666.66 116.993C702.736 174.368 708.027 237.833 708.027 270.687C708.027 310.273 700.972 345.211 686.381 377.103C669.706 413.804 643.41 445.697 608.296 471.98L764.306 709.813C766.391 713.019 766.551 717.185 764.787 720.551C763.024 723.917 759.496 726 755.648 726Z" fill="black"/>
</svg>
