<svg width="28" height="23" viewBox="0 0 28 23" fill="none" xmlns="http://www.w3.org/2000/svg">
<path d="M2.36328 0.835938L5.11328 2.21094C5.45703 2.38281 5.58594 2.8125 5.41406 3.15625C5.24219 3.5 4.8125 3.62891 4.46875 3.45703L1.71875 2.08203C1.41797 1.91016 1.24609 1.48047 1.41797 1.13672C1.58984 0.792969 2.01953 0.664062 2.36328 0.835938ZM25.7383 2.08203L22.9883 3.45703C22.6445 3.62891 22.2148 3.45703 22.043 3.15625C21.8711 2.8125 22.043 2.38281 22.3438 2.21094L25.0938 0.835938C25.4375 0.664062 25.8672 0.792969 26.0391 1.13672C26.2109 1.48047 26.082 1.91016 25.7383 2.08203ZM0.6875 7.625H3.4375C3.78125 7.625 4.125 7.96875 4.125 8.3125C4.125 8.69922 3.78125 9 3.4375 9H0.6875C0.300781 9 0 8.69922 0 8.3125C0 7.96875 0.300781 7.625 0.6875 7.625ZM24.0625 7.625H26.8125C27.1562 7.625 27.5 7.96875 27.5 8.3125C27.5 8.69922 27.1562 9 26.8125 9H24.0625C23.6758 9 23.375 8.69922 23.375 8.3125C23.375 7.96875 23.6758 7.625 24.0625 7.625ZM5.11328 14.457L2.36328 15.832C2.01953 16.0039 1.58984 15.832 1.41797 15.5312C1.24609 15.1875 1.41797 14.7578 1.71875 14.5859L4.46875 13.2109C4.8125 13.0391 5.24219 13.168 5.41406 13.5117C5.58594 13.8555 5.45703 14.2852 5.11328 14.457ZM22.9883 13.2109L25.7383 14.5859C26.082 14.7578 26.2109 15.1875 26.0391 15.5312C25.8672 15.875 25.4375 16.0039 25.0938 15.832L22.3438 14.457C22.043 14.2852 21.8711 13.8555 22.043 13.5117C22.2148 13.168 22.6445 13.0391 22.9883 13.2109ZM19.9375 8.3125C19.9375 4.91797 17.1445 2.125 13.75 2.125C10.3125 2.125 7.5625 4.91797 7.5625 8.3125C7.5625 9.64453 7.94922 10.8477 8.63672 11.8359C8.80859 12.0938 9.02344 12.3945 9.23828 12.6523C9.79688 13.4258 10.3984 14.2852 10.8711 15.1445C11.2578 15.832 11.4727 16.5625 11.5586 17.25H10.1836C10.0547 16.7344 9.92578 16.2617 9.66797 15.7891C9.23828 15.0156 8.72266 14.2852 8.16406 13.5547C7.94922 13.2539 7.73438 12.9531 7.51953 12.6523C6.66016 11.4062 6.1875 9.94531 6.1875 8.3125C6.1875 4.14453 9.53906 0.75 13.75 0.75C17.918 0.75 21.3125 4.14453 21.3125 8.35547C21.3125 9.94531 20.7969 11.4062 19.9375 12.6523C19.7227 12.9531 19.5078 13.2539 19.293 13.5547C18.7773 14.2852 18.2188 15.0156 17.7891 15.7891C17.5312 16.2617 17.4023 16.7773 17.3164 17.293H15.8984C16.0273 16.5625 16.1992 15.832 16.5859 15.1445C17.0586 14.2852 17.7031 13.4258 18.2188 12.6953C18.4336 12.3945 18.6484 12.0938 18.8203 11.8789C19.5078 10.8477 19.9375 9.64453 19.9375 8.3125ZM10.3125 8.3125C10.3125 8.69922 9.96875 9 9.625 9C9.23828 9 8.9375 8.69922 8.9375 8.3125C8.9375 5.69141 11.0859 3.5 13.75 3.5C14.0938 3.5 14.4375 3.84375 14.4375 4.1875C14.4375 4.57422 14.0938 4.875 13.75 4.875C11.8164 4.875 10.3125 6.42188 10.3125 8.3125ZM13.75 21.375H13.707C14.6094 21.375 15.3828 20.8164 15.6836 20H11.7734C12.0742 20.8164 12.8477 21.375 13.75 21.375ZM10.3125 19.0977C10.3125 18.8398 10.4844 18.625 10.7422 18.625H16.7148C16.9727 18.625 17.1875 18.8398 17.1875 19.0977V19.3125C17.1875 21.2461 15.6406 22.75 13.75 22.75C11.8164 22.75 10.3125 21.2461 10.3125 19.3125V19.0977Z" fill="#2772DB"/>
</svg>
