<svg width="139" height="16" viewBox="0 0 139 16" fill="none" xmlns="http://www.w3.org/2000/svg">
<path d="M131.133 14.9225H134.174V3.63593H138.303V1.10171H127.017V3.63593H131.133V14.9225ZM120.737 15.1821C124.594 15.1821 126.275 13.2041 126.275 10.979C126.275 8.12334 123.691 7.3569 121.268 6.70171C119.451 6.19487 118.425 5.79928 118.425 4.69906C118.425 3.8708 119.13 3.31451 120.428 3.31451C121.726 3.31451 123.098 4.10568 123.827 5.28008L125.941 3.67301C124.965 2.20193 123.283 0.829745 120.44 0.829745C117.597 0.829745 115.446 2.38736 115.446 4.95866C115.446 7.85138 118.029 8.4942 120.49 9.18648C122.307 9.69332 123.296 10.1384 123.296 11.1891C123.296 12.2399 122.282 12.7838 120.885 12.7838C119.29 12.7838 117.906 11.9432 117.139 10.4227L114.84 11.7825C115.866 13.7604 117.733 15.1821 120.724 15.1821M107.633 15.145C111.49 15.145 113.208 13.0187 113.208 9.60679V1.07699H110.217V9.54498C110.217 11.56 109.463 12.6726 107.67 12.6726C105.878 12.6726 105.086 11.5476 105.086 9.54498V1.07699H102.045V9.61915C102.045 13.0063 103.788 15.1326 107.633 15.1326M92.4524 7.3569V3.57412H94.5292C96.2846 3.57412 97.1253 4.08096 97.1253 5.44078C97.1253 6.80061 96.2846 7.34454 94.5292 7.34454H92.4524V7.3569ZM89.4608 14.9225H92.4524V9.70568H94.2078L97.0882 14.9225H100.302L97.2242 9.3101C99.0785 8.75381 100.105 7.55469 100.105 5.36661C100.105 2.30083 98.0648 1.08935 94.6652 1.08935H89.4732V14.9225H89.4608ZM80.4489 14.9225H83.4899V3.63593H87.6189V1.10171H76.3323V3.63593H80.4489V14.9225ZM63.1049 13.0929C61.7946 13.0929 60.9169 12.3635 60.9169 11.0779C60.9169 10.2743 61.3866 9.64387 62.1283 9.13703C62.425 9.54498 62.7588 10.0024 63.1049 10.4227C63.7849 11.2633 64.3906 11.9803 64.9963 12.5489C64.44 12.9074 63.7972 13.0929 63.1049 13.0929ZM63.5376 6.23195C63.142 5.50259 62.9442 4.83504 62.9442 4.15513C62.9442 3.24034 63.4882 2.79531 64.1557 2.79531C64.9222 2.79531 65.1818 3.41341 65.1818 3.9697C65.1818 5.02047 64.4895 5.68802 63.5376 6.23195ZM63.0802 15.1821C64.6873 15.1821 65.9606 14.7494 66.9866 14.0448C68.2352 14.7494 69.6074 15.0955 71.3999 15.1079V12.6602C70.4604 12.6602 69.6445 12.4748 68.8533 12.0421C69.6321 10.7688 70.0648 9.26065 70.2749 7.80193H67.716C67.58 8.90215 67.2833 9.84167 66.8383 10.6081C66.3685 10.1631 65.8617 9.58206 65.3301 8.90215C65.0334 8.53129 64.7367 8.17279 64.4895 7.81429C66.1707 6.97367 67.6789 5.9229 67.6789 3.84608C67.6789 2.28847 66.6158 0.817383 64.0939 0.817383C61.3866 0.817383 60.1751 2.49862 60.1751 4.31584C60.1751 5.3048 60.5089 6.31849 61.0529 7.36926C59.3716 8.17279 57.8758 9.26065 57.8758 11.4982C57.8758 13.7357 59.6559 15.1821 63.0926 15.1821H63.0802ZM40.7297 14.9225H43.7707V10.4969L45.2913 8.79089L49.0122 14.9225H52.4489L47.2692 6.49156L51.9668 1.08935H48.4189L43.7831 6.81297V1.08935H40.742V14.9225H40.7297ZM26.2043 14.9225H29.0105V6.0218H29.0476L35.0926 14.9225H37.8988V1.08935H35.0926V9.91584H35.0555L29.2577 1.08935H26.2167V14.9225H26.2043ZM16.3888 9.63151L18.0206 4.92158H18.0577L19.6524 9.63151H16.4012H16.3888ZM11.7654 14.9225H14.5716L15.6348 11.8443H20.3447L21.3707 14.9225H24.4489L19.5535 1.0399H16.6608L11.7654 14.9225ZM3.05021 12.6108V8.93924H5.37427C7.0555 8.93924 7.93321 9.53262 7.93321 10.7565C7.93321 11.9803 7.17913 12.6108 5.49789 12.6108H3.05021ZM3.05021 6.80061V3.4505H5.33718C6.96897 3.4505 7.62416 4.04387 7.62416 5.13173C7.62416 6.21959 6.8948 6.80061 5.3001 6.80061H3.05021ZM0.0585938 14.9225H5.86875C8.45241 14.9225 10.9001 13.8964 10.9001 11.115C10.9001 8.91451 9.57736 8.03681 7.89613 7.72776V7.69067C9.29304 7.40634 10.5292 6.47919 10.5292 4.51363C10.5292 1.70745 8.14336 1.08935 5.59678 1.08935H0.0585938V14.9225Z" fill="black"/>
</svg>
