<svg width="168" height="16" viewBox="0 0 168 16" fill="none" xmlns="http://www.w3.org/2000/svg">
<path d="M160.157 15.0465H163.198V3.75995H167.327V1.22573H156.04V3.75995H160.157V15.0465ZM149.76 15.3061C153.617 15.3061 155.299 13.3282 155.299 11.103C155.299 8.24737 152.715 7.48092 150.292 6.82573C148.475 6.31889 147.449 5.9233 147.449 4.82308C147.449 3.99483 148.166 3.43853 149.451 3.43853C150.737 3.43853 152.122 4.22971 152.851 5.4041L154.965 3.79703C153.988 2.32595 152.307 0.953769 149.464 0.953769C146.62 0.953769 144.47 2.51138 144.47 5.08269C144.47 7.9754 147.053 8.61823 149.513 9.3105C151.33 9.81734 152.319 10.2624 152.319 11.3132C152.319 12.3639 151.306 12.9079 149.909 12.9079C148.314 12.9079 146.93 12.0672 146.175 10.5467L143.876 11.9065C144.902 13.8845 146.769 15.3061 149.76 15.3061ZM136.657 15.269C140.514 15.269 142.232 13.1427 142.232 9.73081V1.20101H139.24V9.669C139.24 11.684 138.486 12.7966 136.694 12.7966C134.901 12.7966 134.11 11.6716 134.11 9.669V1.20101H131.069V9.74317C131.069 13.1304 132.8 15.2566 136.657 15.2566M121.476 7.46856V3.68578H123.553C125.308 3.68578 126.149 4.19262 126.149 5.55244C126.149 6.91227 125.308 7.4562 123.553 7.4562H121.476V7.46856ZM118.485 15.0465H121.476V9.82971H123.232L126.112 15.0465H129.326L126.248 9.43412C128.102 8.87783 129.128 7.67871 129.128 5.49063C129.128 2.42485 127.089 1.21337 123.689 1.21337H118.497V15.0465H118.485ZM109.473 15.0465H112.514V3.75995H116.643V1.22573H105.356V3.75995H109.473V15.0465ZM92.1287 13.2169C90.8183 13.2169 89.9406 12.4875 89.9406 11.2019C89.9406 10.3984 90.4103 9.7679 91.1521 9.26105C91.4488 9.669 91.7825 10.1264 92.1287 10.5467C92.8086 11.3873 93.4143 12.1043 94.0201 12.673C93.4638 13.0315 92.821 13.2169 92.1287 13.2169ZM92.549 6.34361C92.1534 5.61425 91.9556 4.9467 91.9556 4.26679C91.9556 3.352 92.4995 2.90697 93.1671 2.90697C93.9335 2.90697 94.1931 3.52507 94.1931 4.08136C94.1931 5.13213 93.5009 5.79968 92.549 6.34361ZM92.1039 15.3061C93.711 15.3061 94.9843 14.8734 96.0104 14.1688C97.2589 14.8734 98.6311 15.2196 100.424 15.2319V12.7842C99.4841 12.7842 98.6682 12.5988 97.877 12.1661C98.6682 10.8928 99.0885 9.38467 99.2986 7.92595H96.7397C96.6161 9.02617 96.307 9.96569 95.862 10.7321C95.3922 10.2871 94.8854 9.70609 94.3538 9.02617C94.0571 8.65531 93.7605 8.29681 93.5132 7.93832C95.1945 7.0977 96.715 6.04692 96.715 3.9701C96.715 2.41249 95.6519 0.941406 93.13 0.941406C90.4227 0.941406 89.1989 2.62264 89.1989 4.43986C89.1989 5.42882 89.5326 6.44251 90.0766 7.49328C88.3953 8.29681 86.8995 9.38467 86.8995 11.6222C86.8995 13.8597 88.6797 15.3061 92.1163 15.3061H92.1039ZM69.7534 15.0465H72.7944V10.6209L74.315 8.91492L78.0359 15.0465H81.4726L76.2929 6.61558L80.9905 1.21337H77.4426L72.8068 6.93699V1.21337H69.7658V15.0465H69.7534ZM55.2156 15.0465H58.0218V6.14582H58.0589L64.1039 15.0465H66.9101V1.21337H64.1039V10.0399H64.0669L58.2691 1.21337H55.228V15.0465H55.2156ZM45.4002 9.75553L47.032 5.0456H47.0691L48.6638 9.75553H45.4125H45.4002ZM40.7892 15.0465H43.5953L44.6585 11.9683H49.3684L50.3944 15.0465H53.4726L48.5772 1.16392H45.6845L40.7892 15.0465ZM32.0739 12.7224V9.0509H34.398C36.0792 9.0509 36.9569 9.64428 36.9569 10.8681C36.9569 12.092 36.2028 12.7224 34.5216 12.7224H32.0739ZM32.0739 6.91227V3.56216H34.3485C35.9803 3.56216 36.6355 4.15553 36.6355 5.24339C36.6355 6.33125 35.9062 6.91227 34.3114 6.91227H32.0616H32.0739ZM29.0823 15.0465H34.8925C37.4761 15.0465 39.9238 14.0204 39.9238 11.239C39.9238 9.03854 38.6011 8.16083 36.9198 7.85178V7.8147C38.3167 7.53037 39.5529 6.60322 39.5529 4.63765C39.5529 1.83147 37.1671 1.21337 34.6205 1.21337H29.0823V15.0465ZM13.6668 15.0465H16.7079V9.53302H21.047V7.12242H16.7079V3.75995H22.8024V1.22573H13.6668V15.0588V15.0465ZM3.46818 7.46856V3.68578H5.54499C7.3004 3.68578 8.14102 4.19262 8.14102 5.55244C8.14102 6.91227 7.3004 7.4562 5.54499 7.4562H3.46818V7.46856ZM0.476562 15.0465H3.46818V9.82971H5.22358L8.10394 15.0465H11.3181L8.23992 9.43412C10.0942 8.87783 11.1203 7.67871 11.1203 5.49063C11.1203 2.42485 9.08054 1.21337 5.68098 1.21337H0.488927V15.0465H0.476562Z" fill="black"/>
</svg>
