<svg width="168" height="16" viewBox="0 0 168 16" fill="none" xmlns="http://www.w3.org/2000/svg">
<path d="M160.158 15.0465H163.199V3.75995H167.328V1.22573H156.041V3.75995H160.158V15.0465ZM149.761 15.3061C153.618 15.3061 155.299 13.3282 155.299 11.103C155.299 8.24737 152.716 7.48092 150.293 6.82573C148.476 6.31889 147.45 5.9233 147.45 4.82308C147.45 3.99483 148.166 3.43853 149.452 3.43853C150.738 3.43853 152.122 4.2297 152.852 5.4041L154.966 3.79703C153.989 2.32595 152.308 0.953769 149.464 0.953769C146.621 0.953769 144.47 2.51138 144.47 5.08269C144.47 7.9754 147.054 8.61823 149.514 9.3105C151.331 9.81734 152.32 10.2624 152.32 11.3131C152.32 12.3639 151.306 12.9079 149.91 12.9079C148.315 12.9079 146.93 12.0672 146.176 10.5467L143.877 11.9065C144.903 13.8845 146.77 15.3061 149.761 15.3061ZM136.657 15.269C140.514 15.269 142.233 13.1427 142.233 9.73081V1.20101H139.241V9.669C139.241 11.684 138.487 12.7966 136.695 12.7966C134.902 12.7966 134.111 11.6716 134.111 9.669V1.20101H131.07V9.74317C131.07 13.1304 132.8 15.2566 136.657 15.2566M121.477 7.46856V3.68578H123.554C125.309 3.68578 126.15 4.19262 126.15 5.55244C126.15 6.91227 125.309 7.45619 123.554 7.45619H121.477V7.46856ZM118.485 15.0465H121.477V9.8297H123.232L126.113 15.0465H129.327L126.249 9.43412C128.103 8.87783 129.129 7.67871 129.129 5.49063C129.129 2.42485 127.089 1.21337 123.69 1.21337H118.498V15.0465H118.485ZM109.473 15.0465H112.514V3.75995H116.643V1.22573H105.357V3.75995H109.473V15.0465ZM92.1294 13.2169C90.819 13.2169 89.9413 12.4875 89.9413 11.2019C89.9413 10.3984 90.4111 9.7679 91.1528 9.26105C91.4495 9.669 91.7833 10.1264 92.1294 10.5467C92.8093 11.3873 93.4151 12.1043 94.0208 12.673C93.4645 13.0315 92.8217 13.2169 92.1294 13.2169ZM92.5497 6.34361C92.1541 5.61425 91.9563 4.9467 91.9563 4.26679C91.9563 3.352 92.5003 2.90697 93.1678 2.90697C93.9343 2.90697 94.1939 3.52507 94.1939 4.08136C94.1939 5.13213 93.5016 5.79968 92.5497 6.34361ZM92.1047 15.3061C93.7117 15.3061 94.985 14.8734 96.0111 14.1688C97.2597 14.8734 98.6318 15.2196 100.424 15.2319V12.7842C99.4848 12.7842 98.6689 12.5988 97.8777 12.1661C98.6689 10.8928 99.0892 9.38467 99.2994 7.92595H96.7404C96.6168 9.02617 96.3078 9.96569 95.8627 10.7321C95.393 10.2871 94.8861 9.70609 94.3546 9.02617C94.0579 8.65531 93.7612 8.29681 93.5139 7.93832C95.1952 7.0977 96.7157 6.04692 96.7157 3.9701C96.7157 2.41249 95.6526 0.941406 93.1307 0.941406C90.4234 0.941406 89.1996 2.62264 89.1996 4.43986C89.1996 5.42882 89.5334 6.44251 90.0773 7.49328C88.3961 8.29681 86.9003 9.38467 86.9003 11.6222C86.9003 13.8597 88.6804 15.3061 92.117 15.3061H92.1047ZM69.7541 15.0465H72.7952V10.6209L74.3157 8.91491L78.0367 15.0465H81.4733L76.2936 6.61558L80.9912 1.21337H77.4433L72.8075 6.93699V1.21337H69.7665V15.0465H69.7541ZM55.2164 15.0465H58.0226V6.14582H58.0596L64.1047 15.0465H66.9109V1.21337H64.1047V10.0399H64.0676L58.2698 1.21337H55.2287V15.0465H55.2164ZM45.4009 9.75553L47.0327 5.0456H47.0698L48.6645 9.75553H45.4133H45.4009ZM40.7899 15.0465H43.5961L44.6592 11.9683H49.3691L50.3952 15.0465H53.4733L48.578 1.16392H45.6852L40.7899 15.0465ZM32.0746 12.7224V9.0509H34.3987C36.0799 9.0509 36.9577 9.64427 36.9577 10.8681C36.9577 12.092 36.2036 12.7224 34.5223 12.7224H32.0746ZM32.0746 6.91227V3.56216H34.3493C35.9811 3.56216 36.6362 4.15553 36.6362 5.24339C36.6362 6.33125 35.9069 6.91227 34.3122 6.91227H32.0623H32.0746ZM29.083 15.0465H34.8932C37.4769 15.0465 39.9245 14.0204 39.9245 11.239C39.9245 9.03854 38.6018 8.16083 36.9206 7.85178V7.81469C38.3175 7.53037 39.5537 6.60322 39.5537 4.63765C39.5537 1.83147 37.1678 1.21337 34.6212 1.21337H29.083V15.0465ZM13.6676 15.0465H16.7086V9.53302H21.0477V7.12242H16.7086V3.75995H22.8031V1.22573H13.6676V15.0588V15.0465ZM3.46891 7.46856V3.68578H5.54573C7.30113 3.68578 8.14175 4.19262 8.14175 5.55244C8.14175 6.91227 7.30113 7.45619 5.54573 7.45619H3.46891V7.46856ZM0.477295 15.0465H3.46891V9.8297H5.22432L8.10467 15.0465H11.3188L8.24065 9.43412C10.095 8.87783 11.121 7.67871 11.121 5.49063C11.121 2.42485 9.08127 1.21337 5.68171 1.21337H0.48966V15.0465H0.477295Z" fill="white"/>
</svg>
