<svg width="139" height="16" viewBox="0 0 139 16" fill="none" xmlns="http://www.w3.org/2000/svg">
<path d="M131.133 14.9225H134.174V3.63593H138.303V1.10171H127.016V3.63593H131.133V14.9225ZM120.736 15.1821C124.593 15.1821 126.274 13.2041 126.274 10.979C126.274 8.12334 123.691 7.3569 121.268 6.70171C119.451 6.19487 118.425 5.79928 118.425 4.69906C118.425 3.8708 119.129 3.31451 120.427 3.31451C121.725 3.31451 123.097 4.10568 123.827 5.28008L125.941 3.67301C124.964 2.20193 123.283 0.829745 120.44 0.829745C117.596 0.829745 115.445 2.38736 115.445 4.95866C115.445 7.85138 118.029 8.4942 120.489 9.18648C122.306 9.69332 123.295 10.1384 123.295 11.1891C123.295 12.2399 122.282 12.7838 120.885 12.7838C119.29 12.7838 117.905 11.9432 117.139 10.4227L114.84 11.7825C115.866 13.7604 117.732 15.1821 120.724 15.1821M107.632 15.145C111.489 15.145 113.208 13.0187 113.208 9.60679V1.07699H110.216V9.54498C110.216 11.56 109.462 12.6726 107.67 12.6726C105.877 12.6726 105.086 11.5476 105.086 9.54498V1.07699H102.045V9.61915C102.045 13.0063 103.788 15.1326 107.632 15.1326M92.4519 7.3569V3.57412H94.5288C96.2842 3.57412 97.1248 4.08096 97.1248 5.44078C97.1248 6.80061 96.2842 7.34454 94.5288 7.34454H92.4519V7.3569ZM89.4603 14.9225H92.4519V9.70568H94.2073L97.0877 14.9225H100.302L97.2237 9.3101C99.078 8.75381 100.104 7.55469 100.104 5.36661C100.104 2.30083 98.0643 1.08935 94.6647 1.08935H89.4727V14.9225H89.4603ZM80.4484 14.9225H83.4894V3.63593H87.6184V1.10171H76.3318V3.63593H80.4484V14.9225ZM63.1045 13.0929C61.7941 13.0929 60.9164 12.3635 60.9164 11.0779C60.9164 10.2743 61.3861 9.64387 62.1279 9.13703C62.4245 9.54498 62.7583 10.0024 63.1045 10.4227C63.7844 11.2633 64.3901 11.9803 64.9958 12.5489C64.4396 12.9074 63.7967 13.0929 63.1045 13.0929ZM63.5371 6.23195C63.1415 5.50259 62.9438 4.83504 62.9438 4.15513C62.9438 3.24034 63.4877 2.79531 64.1552 2.79531C64.9217 2.79531 65.1813 3.41341 65.1813 3.9697C65.1813 5.02047 64.489 5.68802 63.5371 6.23195ZM63.0797 15.1821C64.6868 15.1821 65.9601 14.7494 66.9861 14.0448C68.2347 14.7494 69.6069 15.0955 71.3994 15.1079V12.6602C70.4599 12.6602 69.644 12.4748 68.8528 12.0421C69.6316 10.7688 70.0643 9.26065 70.2744 7.80193H67.7155C67.5795 8.90215 67.2828 9.84167 66.8378 10.6081C66.368 10.1631 65.8612 9.58206 65.3296 8.90215C65.0329 8.53129 64.7363 8.17279 64.489 7.81429C66.1702 6.97367 67.6784 5.9229 67.6784 3.84608C67.6784 2.28847 66.6153 0.817383 64.0934 0.817383C61.3861 0.817383 60.1747 2.49862 60.1747 4.31584C60.1747 5.3048 60.5084 6.31849 61.0524 7.36926C59.3711 8.17279 57.8753 9.26065 57.8753 11.4982C57.8753 13.7357 59.6555 15.1821 63.0921 15.1821H63.0797ZM40.7292 14.9225H43.7702V10.4969L45.2908 8.79089L49.0117 14.9225H52.4484L47.2687 6.49156L51.9663 1.08935H48.4184L43.7826 6.81297V1.08935H40.7416V14.9225H40.7292ZM26.2038 14.9225H29.01V6.0218H29.0471L35.0921 14.9225H37.8983V1.08935H35.0921V9.91584H35.055L29.2572 1.08935H26.2162V14.9225H26.2038ZM16.3883 9.63151L18.0201 4.92158H18.0572L19.6519 9.63151H16.4007H16.3883ZM11.7649 14.9225H14.5711L15.6343 11.8443H20.3442L21.3702 14.9225H24.4484L19.553 1.0399H16.6603L11.7649 14.9225ZM3.04972 12.6108V8.93924H5.37378C7.05501 8.93924 7.93272 9.53262 7.93272 10.7565C7.93272 11.9803 7.17864 12.6108 5.4974 12.6108H3.04972ZM3.04972 6.80061V3.4505H5.33669C6.96848 3.4505 7.62367 4.04387 7.62367 5.13173C7.62367 6.21959 6.89431 6.80061 5.29961 6.80061H3.04972ZM0.0581055 14.9225H5.86826C8.45193 14.9225 10.8996 13.8964 10.8996 11.115C10.8996 8.91451 9.57687 8.03681 7.89564 7.72776V7.69067C9.29255 7.40634 10.5287 6.47919 10.5287 4.51363C10.5287 1.70745 8.14287 1.08935 5.59629 1.08935H0.0581055V14.9225Z" fill="white"/>
</svg>
