<svg width="60" height="56" viewBox="0 0 60 56" fill="none" xmlns="http://www.w3.org/2000/svg">
<path id="Vector" d="M58.2598 56H37.0713C36.7993 56 36.5521 55.864 36.4037 55.6539L24.4125 38.174C24.2395 37.9267 24.2271 37.6053 24.3631 37.3457C24.4991 37.0737 24.7834 36.913 25.0801 36.913H30.6306C30.9026 36.913 31.1498 37.049 31.2982 37.2715L39.8774 49.8313H48.296L38.6783 35.1576C38.5547 34.9722 38.5176 34.7373 38.5671 34.5272C38.6165 34.3046 38.7649 34.1192 38.9626 34.0079L41.1136 32.8088C44.0805 31.1523 46.1574 29.0508 47.307 26.5413C48.3083 24.3408 48.4196 22.264 48.4196 20.8918C48.4196 19.0252 48.1229 15.4402 46.1697 12.3249C43.6231 8.25784 38.9379 6.20574 32.2501 6.20574H8.0823V49.8313H15.3759V15.7369L14.6713 13.9073C14.5724 13.66 14.6094 13.3757 14.7578 13.1532C14.9061 12.9307 15.1534 12.8071 15.4253 12.8071L38.7278 12.77C38.9379 12.77 39.1481 12.8565 39.2964 13.0049C39.4448 13.1532 39.5313 13.3634 39.5313 13.5735V18.9263C39.5313 19.1982 39.3953 19.4455 39.1728 19.5938C38.9503 19.7422 38.666 19.7792 38.4187 19.6804L36.6139 18.951H21.5445V24.8477H34.0426C34.4876 24.8477 34.8461 25.2062 34.8461 25.6512V31.004C34.8461 31.2759 34.7101 31.5232 34.4876 31.6715C34.2651 31.8199 33.9808 31.857 33.7335 31.7457L31.941 31.0163H21.5445V50.4124L23.5843 54.8256C23.7079 55.0728 23.6832 55.3695 23.5348 55.6044C23.3865 55.8393 23.1269 55.9753 22.8549 55.9753H0.80106C0.529095 55.9753 0.281854 55.8393 0.13351 55.6168C-0.0148344 55.3943 -0.0395585 55.1099 0.0593377 54.8627L1.90128 50.4371V5.55055L0.0593377 1.11258C-0.0395585 0.865342 -0.0148344 0.581015 0.13351 0.358499C0.281854 0.135982 0.541457 0 0.80106 0H32.2377C36.9847 0 41.1013 0.890066 44.4514 2.63311C47.3565 4.14128 49.6929 6.29227 51.3989 9.02428C54.1803 13.4499 54.5883 18.3453 54.5883 20.8795C54.5883 23.9329 54.0443 26.6278 52.9194 29.0879C51.6337 31.9188 49.6064 34.3788 46.8991 36.4062L58.9273 54.7514C59.088 54.9987 59.1004 55.3201 58.9644 55.5797C58.8284 55.8393 58.5565 56 58.2598 56Z" fill="black"/>
</svg>
