<svg width="64" height="64" viewBox="0 0 64 64" fill="none" xmlns="http://www.w3.org/2000/svg">
<path d="M39.6675 38.3895C39.6653 39.6868 39.9461 40.9689 40.4905 42.1465C41.4102 44.1954 41.9953 46.3786 42.2233 48.6128C42.099 50.6738 41.7919 52.7196 41.3058 54.7263C41.2645 54.913 41.2656 55.1066 41.3091 55.2929C41.3525 55.4791 41.4372 55.6532 41.5569 55.8023C41.6766 55.9514 41.8283 56.0718 42.0006 56.1545C42.173 56.2372 42.3618 56.2802 42.553 56.2803H46.2871C46.5817 56.2803 46.8673 56.1786 47.0955 55.9923C47.3237 55.806 47.4805 55.5466 47.5395 55.2579L48.6129 49.8907C49.9741 48.6034 51.4013 47.3877 52.8888 46.2486C54.2222 45.3892 55.3379 44.2321 56.1481 42.8684C56.9584 41.5046 57.4411 39.9714 57.5583 38.3895C57.5583 33.449 53.4077 30.6427 48.6129 29.444C39.095 27.0646 41.2598 19.2207 29.4442 19.2207C21.562 19.2207 15.3615 24.9228 8.48633 29.4773" stroke="#006F64" stroke-width="2" stroke-linecap="round" stroke-linejoin="round"/>
<path d="M2.71275 20.499C3.5279 21.5581 4.11854 22.7722 4.44856 24.0673C4.77859 25.3623 4.84106 26.7111 4.63218 28.0311C3.80482 30.1744 3.13344 32.3748 2.62329 34.6149C2.73064 35.8928 3.70952 38.3694 5.49349 38.2186C6.77141 38.1113 8.88253 32.8028 8.45315 27.709C8.1907 26.1174 7.52547 24.6194 6.52071 23.3574C5.51596 22.0954 4.20508 21.1114 2.71275 20.499Z" stroke="#006F64" stroke-width="2" stroke-linecap="round" stroke-linejoin="round"/>
<path d="M2.60791 34.5557C2.60791 34.5557 2.60791 43.5011 3.88583 44.779C5.16374 46.0569 8.99749 43.5011 10.2754 42.2232C11.8748 40.4742 12.7833 38.2031 12.8312 35.8336" stroke="#006F64" stroke-width="2" stroke-linecap="round" stroke-linejoin="round"/>
<path d="M24.3326 42.2236C25.2211 43.2978 25.6768 44.6649 25.6105 46.0574C25.3777 48.9759 24.7287 51.8462 23.6834 54.5811C23.6161 54.7737 23.5958 54.9797 23.6244 55.1817C23.653 55.3838 23.7295 55.5761 23.8476 55.7425C23.9657 55.9089 24.122 56.0446 24.3033 56.1382C24.4846 56.2319 24.6857 56.2807 24.8898 56.2807H26.1472C26.375 56.2807 26.5987 56.2198 26.7951 56.1043C26.9915 55.9889 27.1534 55.823 27.2641 55.6239L33.278 44.7795H41.4746" stroke="#006F64" stroke-width="2" stroke-linecap="round" stroke-linejoin="round"/>
<path d="M11.9214 39.7775C16.1794 39.7643 20.3979 40.5956 24.3325 42.2234" stroke="#006F64" stroke-width="2" stroke-linecap="round" stroke-linejoin="round"/>
<path d="M19.5045 40.6719L19.2208 40.9454C19.2208 40.9454 14.1091 46.057 14.1091 47.3349C14.5028 48.813 15.1552 50.2096 16.0362 51.46C16.2037 51.7311 16.4663 51.9299 16.7727 52.0174C17.0791 52.1049 17.4071 52.0747 17.6924 51.9329L18.6355 51.46C18.8004 51.378 18.9456 51.2613 19.0612 51.118C19.1767 50.9746 19.26 50.8079 19.3051 50.6294C19.5121 49.8612 19.9248 49.1639 20.4987 48.6129C22.0574 47.4971 23.7826 46.6345 25.6104 46.057" stroke="#006F64" stroke-width="2" stroke-linecap="round" stroke-linejoin="round"/>
<path d="M57.2311 40.6104C56.8268 41.9931 56.9432 43.4761 57.5582 44.7789C57.9093 45.6413 58.4293 46.4248 59.0877 47.0832C59.7461 47.7416 60.5296 48.2617 61.392 48.6127L60.293 55.2118C60.2433 55.5107 60.0891 55.7821 59.8578 55.9778C59.6266 56.1735 59.3333 56.2806 59.0304 56.2802H56.7302C56.5431 56.2802 56.3583 56.2391 56.1888 56.1598C56.0194 56.0806 55.8694 55.9651 55.7494 55.8215C55.6295 55.6779 55.5426 55.5098 55.4947 55.3289C55.4469 55.148 55.4394 54.9589 55.4727 54.7748C55.7126 53.5535 55.5475 52.2874 55.0024 51.1685C54.4421 50.3681 53.6947 49.7168 52.8251 49.2714C51.9556 48.8259 50.9903 48.5998 50.0134 48.6127" stroke="#006F64" stroke-width="2" stroke-linecap="round" stroke-linejoin="round"/>
<path d="M56.5361 34.4767C57.5718 34.0987 58.4684 33.4152 59.1073 32.5166C59.7462 31.618 60.0973 30.5467 60.1143 29.4443C60.1143 25.6106 56.2805 24.3326 53.7247 24.3326C52.2302 24.3719 50.749 24.0427 49.4118 23.3741C48.0746 22.7055 46.9225 21.7181 46.0572 20.4989C45.6921 19.6963 45.5032 18.8248 45.5032 17.9431C45.5032 17.0613 45.6921 16.1898 46.0572 15.3872M46.0572 15.3872C45.6921 14.5846 45.5032 13.7131 45.5032 12.8314C45.5032 11.9497 45.6921 11.0782 46.0572 10.2756C46.41 9.54616 46.9515 8.92448 47.6257 8.47504C48.2998 8.02561 49.082 7.76481 49.8909 7.71973C50.2561 8.52232 50.445 9.39382 50.445 10.2756C50.445 11.1573 50.2561 12.0288 49.8909 12.8314C49.5382 13.5608 48.9966 14.1825 48.3225 14.6319C47.6483 15.0813 46.8662 15.3421 46.0572 15.3872Z" stroke="#006F64" stroke-width="2" stroke-linecap="round" stroke-linejoin="round"/>
</svg>
