<svg width="22" height="20" viewBox="0 0 22 20" fill="none" xmlns="http://www.w3.org/2000/svg">
<path d="M6.875 1.5C6.10156 1.5 5.5 2.14453 5.5 2.875V16.625C5.5 17.1406 5.32812 17.6133 5.11328 18H18.5625C19.6797 18 20.625 17.0977 20.625 15.9375V2.875C20.625 2.14453 19.9805 1.5 19.25 1.5H6.875ZM2.75 19.375C1.20312 19.375 0 18.1719 0 16.625V5.625C0 4.12109 1.20312 2.875 2.75 2.875V4.25C1.97656 4.25 1.375 4.89453 1.375 5.625V16.625C1.375 17.3984 1.97656 18 2.75 18C3.48047 18 4.125 17.3984 4.125 16.625V2.875C4.125 1.37109 5.32812 0.125 6.875 0.125H19.25C20.7539 0.125 22 1.37109 22 2.875V15.9375C22 17.8711 20.4531 19.375 18.5625 19.375H2.75ZM16.5 3.5625C16.5 3.21875 16.8008 2.875 17.1875 2.875H18.5625C18.9062 2.875 19.25 3.21875 19.25 3.5625C19.25 3.94922 18.9062 4.25 18.5625 4.25H17.1875C16.8008 4.25 16.5 3.94922 16.5 3.5625ZM16.5 6.3125C16.5 5.96875 16.8008 5.625 17.1875 5.625H18.5625C18.9062 5.625 19.25 5.96875 19.25 6.3125C19.25 6.69922 18.9062 7 18.5625 7H17.1875C16.8008 7 16.5 6.69922 16.5 6.3125ZM16.5 9.0625C16.5 8.71875 16.8008 8.375 17.1875 8.375H18.5625C18.9062 8.375 19.25 8.71875 19.25 9.0625C19.25 9.44922 18.9062 9.75 18.5625 9.75H17.1875C16.8008 9.75 16.5 9.44922 16.5 9.0625ZM6.875 11.8125C6.875 11.4688 7.17578 11.125 7.5625 11.125H18.5625C18.9062 11.125 19.25 11.4688 19.25 11.8125C19.25 12.1992 18.9062 12.5 18.5625 12.5H7.5625C7.17578 12.5 6.875 12.1992 6.875 11.8125ZM6.875 14.5625C6.875 14.2188 7.17578 13.875 7.5625 13.875H18.5625C18.9062 13.875 19.25 14.2188 19.25 14.5625C19.25 14.9492 18.9062 15.25 18.5625 15.25H7.5625C7.17578 15.25 6.875 14.9492 6.875 14.5625ZM8.25 8.375H13.75V4.25H8.25V8.375ZM6.875 3.90625C6.875 3.34766 7.30469 2.875 7.90625 2.875H14.0938C14.6523 2.875 15.125 3.34766 15.125 3.90625V8.71875C15.125 9.32031 14.6523 9.75 14.0938 9.75H7.90625C7.30469 9.75 6.875 9.32031 6.875 8.71875V3.90625Z" fill="#2772DB"/>
</svg>
