<svg width="24" height="22" viewBox="0 0 24 22" fill="none" xmlns="http://www.w3.org/2000/svg">
<path d="M7.875 2.625C7.21875 2.625 6.75 3.14062 6.75 3.75V18C6.75 18.4219 6.65625 18.7969 6.51562 19.125H20.625C21.2344 19.125 21.75 18.6562 21.75 18V3.75C21.75 3.14062 21.2344 2.625 20.625 2.625H7.875ZM3.375 21.375C1.5 21.375 0 19.875 0 18V4.125C0 3.51562 0.46875 3 1.125 3C1.73438 3 2.25 3.51562 2.25 4.125V18C2.25 18.6562 2.71875 19.125 3.375 19.125C3.98438 19.125 4.5 18.6562 4.5 18V3.75C4.5 1.92188 6 0.375 7.875 0.375H20.625C22.4531 0.375 24 1.92188 24 3.75V18C24 19.875 22.4531 21.375 20.625 21.375H3.375ZM8.25 5.25C8.25 4.64062 8.71875 4.125 9.375 4.125H13.875C14.4844 4.125 15 4.64062 15 5.25V9C15 9.65625 14.4844 10.125 13.875 10.125H9.375C8.71875 10.125 8.25 9.65625 8.25 9V5.25ZM17.625 4.125H19.125C19.7344 4.125 20.25 4.64062 20.25 5.25C20.25 5.90625 19.7344 6.375 19.125 6.375H17.625C16.9688 6.375 16.5 5.90625 16.5 5.25C16.5 4.64062 16.9688 4.125 17.625 4.125ZM17.625 7.875H19.125C19.7344 7.875 20.25 8.39062 20.25 9C20.25 9.65625 19.7344 10.125 19.125 10.125H17.625C16.9688 10.125 16.5 9.65625 16.5 9C16.5 8.39062 16.9688 7.875 17.625 7.875ZM9.375 11.625H19.125C19.7344 11.625 20.25 12.1406 20.25 12.75C20.25 13.4062 19.7344 13.875 19.125 13.875H9.375C8.71875 13.875 8.25 13.4062 8.25 12.75C8.25 12.1406 8.71875 11.625 9.375 11.625ZM9.375 15.375H19.125C19.7344 15.375 20.25 15.8906 20.25 16.5C20.25 17.1562 19.7344 17.625 19.125 17.625H9.375C8.71875 17.625 8.25 17.1562 8.25 16.5C8.25 15.8906 8.71875 15.375 9.375 15.375Z" fill="#2772DB"/>
</svg>
