<svg width="64" height="64" viewBox="0 0 64 64" fill="none" xmlns="http://www.w3.org/2000/svg">
<path d="M32.0103 20.4992V17.9434" stroke="#6F2276" stroke-width="2" stroke-linecap="round" stroke-linejoin="round"/>
<path d="M35.8338 20.499H30.648C29.8517 20.4996 29.0804 20.7772 28.4664 21.2843C27.8523 21.7913 27.4339 22.4962 27.2828 23.2781C27.1317 24.0599 27.2573 24.87 27.6382 25.5693C28.019 26.2687 28.6313 26.8137 29.3701 27.111L34.6453 29.2221C35.3841 29.5193 35.9964 30.0644 36.3772 30.7637C36.7581 31.4631 36.8837 32.2731 36.7326 33.055C36.5815 33.8368 36.1631 34.5417 35.549 35.0488C34.935 35.5558 34.1637 35.8335 33.3674 35.834H28.1663" stroke="#6F2276" stroke-width="2" stroke-linecap="round" stroke-linejoin="round"/>
<path d="M32.0103 38.3898V35.834" stroke="#6F2276" stroke-width="2" stroke-linecap="round" stroke-linejoin="round"/>
<path d="M5.00269 39.4346C10.6613 44.9424 20.6265 48.6126 32 48.6126C43.3734 48.6126 53.3488 44.9449 59.0074 39.4371" stroke="#6F2276" stroke-width="2" stroke-linecap="round" stroke-linejoin="round"/>
<path d="M47.3938 46.1802C55.3143 32.8541 42.3026 2.6084 32 2.6084C21.6974 2.6084 8.69079 32.8516 16.6139 46.1802" stroke="#6F2276" stroke-width="2" stroke-linecap="round" stroke-linejoin="round"/>
<path d="M14.2804 33.1377C7.94708 35.2386 3.88586 38.6992 3.88586 43.5016C3.88586 55.0028 16.4733 61.3924 32 61.3924C47.5267 61.3924 60.1142 55.0028 60.1142 43.5016C60.1142 38.6992 56.0632 35.2386 49.7298 33.1377" stroke="#6F2276" stroke-width="2" stroke-linecap="round" stroke-linejoin="round"/>
</svg>
