<svg width="32" height="25" viewBox="0 0 32 25" fill="none" xmlns="http://www.w3.org/2000/svg">
<path d="M25.9661 24.9014C21.0847 24.9014 17.9661 20.7658 17.9661 14.6641C17.9661 11.1387 19.2542 7.47764 21.8983 4.76577C24.4746 2.12171 27.5254 0.901367 30.1695 0.901367C31.1864 0.901367 31.5932 1.30815 31.5932 1.98611V3.54544C31.5932 4.15561 31.4576 4.63018 30.5763 4.63018C29.0169 4.63018 27.322 5.24035 25.8983 6.39289C24.339 7.68103 23.5932 9.30815 23.5932 10.9353C23.5932 13.4437 25.2881 13.6471 26.983 13.9183C29.5593 14.2573 31.661 15.342 31.661 19.0709C31.661 22.6641 29.4237 24.9014 25.9661 24.9014ZM8 24.9014C3.11864 24.9014 0 20.7658 0 14.6641C0 11.1387 1.28814 7.47764 3.9322 4.76577C6.50847 2.12171 9.55932 0.901367 12.2034 0.901367C13.2203 0.901367 13.6271 1.30815 13.6271 1.98611V3.54544C13.6271 4.15561 13.4915 4.63018 12.6102 4.63018C11.0508 4.63018 9.35593 5.24035 7.9322 6.39289C6.37288 7.68103 5.62712 9.30815 5.62712 10.9353C5.62712 13.4437 7.32203 13.6471 9.01695 13.9183C11.5932 14.2573 13.6949 15.342 13.6949 19.0709C13.6949 22.6641 11.4576 24.9014 8 24.9014Z" fill="black"/>
</svg>
