<svg width="197" height="48" viewBox="0 0 197 48" fill="none" xmlns="http://www.w3.org/2000/svg">
<g clip-path="url(#clip0_7356_2224)">
<path d="M60.5267 48H66.7913V0H60.5267V48ZM83.2118 35.5136H83.1691L80.4751 26.6192H76.9472V38.7207H79.3419V30.318H79.3847C79.6412 31.7078 79.8123 32.2423 80.0902 33.1403L81.8862 38.6993H84.2381L86.0555 33.1403C86.3121 32.2637 86.5472 31.494 86.7183 30.4463H86.7397V38.7207H89.3054V26.6192H85.7134L83.1905 35.5136H83.2118ZM92.5766 9.23653H90.1178V16.955H90.0751L85.0078 9.23653H82.3352V21.3381H84.794V13.5555H84.8368L90.1178 21.3381H92.5766V9.23653ZM95.1423 26.5764L90.8448 38.7421H93.3036L94.2443 36.0481H98.3708L99.2688 38.7421H101.963L97.6653 26.5764H95.121H95.1423ZM94.9072 34.1025L96.3397 29.9759H96.3824L97.7722 34.1025H94.9285H94.9072ZM100.808 21.4022L104.978 9.23653H102.476L99.6109 17.8958H99.5896L96.8314 9.23653H94.1374L98.3067 21.4022H100.83H100.808ZM130.271 21.3595H132.944V11.4815H136.557V9.25791H126.679V11.4815H130.271V21.3595ZM40.7281 31.1733C43.0586 29.4414 44.7904 27.3247 45.8809 24.9087C46.843 22.792 47.3134 20.5042 47.3134 17.8744C47.3134 15.7149 46.9499 11.5243 44.5766 7.71849C43.1227 5.38797 41.1129 3.54922 38.6328 2.24499C35.7677 0.76971 32.2399 0 28.1775 0H1.23766C1.02385 0 0.788664 0.128285 0.660378 0.320713C0.553474 0.51314 0.510713 0.74833 0.596236 0.962138L2.17842 4.74655V43.2107L0.596236 47.0165C0.510713 47.2303 0.532093 47.4655 0.660378 47.6579C0.788664 47.8503 1.00247 47.9572 1.23766 47.9572H20.1383C20.3735 47.9572 20.5873 47.829 20.7156 47.6365C20.8439 47.4441 20.8653 47.1875 20.7584 46.9737L19.0051 43.1893V26.5764H27.921L29.4604 27.1964C29.6742 27.282 29.9094 27.2606 30.1018 27.1323C30.2942 27.004 30.4011 26.7902 30.4011 26.555V21.9795C30.4011 21.5947 30.0804 21.2953 29.7169 21.2953H19.0051V16.2494H31.9192L33.4586 16.8695C33.6724 16.955 33.9076 16.9336 34.1 16.8053C34.2924 16.6771 34.3994 16.4633 34.3994 16.2281V11.6526C34.3994 11.4601 34.3352 11.2891 34.2069 11.1608C34.0786 11.0325 33.9076 10.9684 33.7152 10.9684H13.7668C13.5316 10.9898 13.3178 11.118 13.1896 11.2891C13.0613 11.4815 13.0399 11.7167 13.1254 11.9305L13.7241 13.5127V42.6975H7.48087V5.30245H28.1775C33.9076 5.30245 37.9272 7.07706 40.108 10.5408C41.7757 13.2134 42.0323 16.2922 42.0323 17.8744C42.0323 19.0503 41.9254 20.8463 41.0702 22.7278C40.0867 24.8873 38.312 26.6833 35.7677 28.0944L33.929 29.1207C33.7579 29.2062 33.6296 29.3773 33.5869 29.5483C33.5441 29.7408 33.5869 29.9332 33.6724 30.1042L41.9254 42.6762H34.7201L27.3651 31.9216C27.2368 31.7292 27.023 31.6223 26.7878 31.6223H22.0412C21.7847 31.6223 21.5495 31.7719 21.4212 31.9857C21.2929 32.2209 21.3143 32.4989 21.4639 32.6913L31.7267 47.6579C31.855 47.8503 32.0688 47.9572 32.304 47.9572H50.4564C50.7129 47.9572 50.9481 47.8076 51.0764 47.5938C51.2047 47.38 51.1833 47.102 51.055 46.8882L40.7495 31.1733H40.7281ZM161.573 19.2H155.693V16.1853H159.734V14.0686H155.693V11.4601H161.273V9.23653H153.02V21.3381H161.573V19.1786V19.2ZM121.291 19.478C119.901 19.478 118.683 18.751 118.02 17.4254L116.01 18.6227C116.908 20.3546 118.554 21.5947 121.163 21.5947C124.541 21.5947 126.016 19.8628 126.016 17.9172C126.016 15.4156 123.75 14.7314 121.633 14.1755C120.051 13.7265 119.153 13.3844 119.153 12.4223C119.153 11.6953 119.773 11.2036 120.906 11.2036C122.039 11.2036 123.258 11.8878 123.878 12.914L125.717 11.5029C124.862 10.22 123.386 9.02272 120.906 9.02272C118.426 9.02272 116.545 10.3697 116.545 12.6361C116.545 15.1804 118.811 15.7363 120.97 16.335C122.553 16.784 123.429 17.1688 123.429 18.0882C123.429 19.0076 122.553 19.478 121.312 19.478H121.291ZM111.263 34.3376H111.221L106.153 26.6192H103.481V38.7207H105.94V30.9381H105.982L111.263 38.7207H113.722V26.6192H111.263V34.3376ZM79.7268 9.23653H77.0755V21.3381H79.7268V9.23653ZM178.827 21.3595H181.5V11.4815H185.113V9.25791H175.235V11.4815H178.827V21.3595ZM171.173 16.955H171.151L166.084 9.23653H163.411V21.3381H165.87V13.5555H165.892L171.173 21.3381H173.631V9.23653H171.173V16.955ZM167.581 33.5465H171.622V31.4298H167.581V28.8214H173.161V26.5978H164.908V38.6993H173.46V36.5399H167.581V33.5252V33.5465ZM109.168 16.1853H113.209V14.0686H109.168V11.4601H114.749V9.23653H106.496V21.3381H115.048V19.1786H109.168V16.1639V16.1853ZM183.039 34.3376H183.018L177.95 26.6192H175.278V38.7207H177.737V30.9381H177.779L183.06 38.7207H185.519V26.6192H183.06V34.3376H183.039ZM187.101 26.6192V28.8428H190.693V38.7207H193.366V28.8428H196.979V26.6192H187.101ZM119.538 26.5764L115.24 38.7421H117.699L118.64 36.0481H122.766L123.664 38.7421H126.358L122.061 26.5764H119.517H119.538ZM119.281 34.1025L120.714 29.9759H120.757L122.146 34.1025H119.303H119.281ZM156.292 35.5136H156.249L153.555 26.6192H150.027V38.7207H152.422V30.318H152.464C152.721 31.7078 152.892 32.2423 153.17 33.1403L154.966 38.6993H157.318L159.135 33.1403C159.392 32.2637 159.627 31.494 159.798 30.4463H159.841V38.7207H162.406V26.6192H158.814L156.292 35.5136ZM132.644 34.637H134.761C134.526 35.984 133.606 36.8178 132.281 36.8178C130.955 36.8178 129.352 35.9626 129.352 32.5844C129.352 29.2062 131.19 28.6076 132.174 28.6076C133.371 28.6076 134.141 29.2704 134.654 30.9381L137.092 30.2753C136.322 27.3033 134.483 26.4053 132.195 26.4053C128.796 26.4053 126.679 28.8428 126.679 32.6486C126.679 36.4543 128.325 38.9773 131.982 38.9773C133.82 38.9773 134.868 37.8013 135.146 37.0744H135.189V38.7421H137.327V32.6699H132.687V34.6584L132.644 34.637ZM142.351 33.5465H146.392V31.4298H142.351V28.8214H147.932V26.5978H139.679V38.6993H148.231V36.5399H142.351V33.5252V33.5465ZM140.555 12.9568H140.598C140.855 14.3465 141.026 14.8811 141.304 15.7791L143.1 21.3381H145.451L147.269 15.7791C147.525 14.9025 147.761 14.1327 147.932 13.0851H147.953V21.3595H150.519V9.25791H146.927L144.404 18.1523H144.361L141.667 9.25791H138.139V21.3595H140.534V12.9568H140.555Z" fill="white"/>
</g>
<defs>
<clipPath id="clip0_7356_2224">
<rect width="196.447" height="48" fill="white" transform="translate(0.552734)"/>
</clipPath>
</defs>
</svg>
