<svg width="51" height="49" viewBox="0 0 51 49" fill="none" xmlns="http://www.w3.org/2000/svg">
<path d="M49.937 48.9023H31.7754C31.5423 48.9023 31.3303 48.7858 31.2032 48.6057L20.925 33.6229C20.7767 33.4109 20.7661 33.1355 20.8826 32.9129C20.9992 32.6798 21.2429 32.5421 21.4972 32.5421H26.2548C26.4879 32.5421 26.6999 32.6586 26.827 32.8494L34.1807 43.6149H41.3966L33.1529 31.0374C33.0469 30.8785 33.0151 30.6772 33.0575 30.497C33.0999 30.3063 33.227 30.1474 33.3966 30.052L35.2403 29.0242C37.7833 27.6043 39.5634 25.803 40.5489 23.652C41.4072 21.7659 41.5025 19.9858 41.5025 18.8096C41.5025 17.2096 41.2482 14.1368 39.574 11.4666C37.3913 7.98049 33.3754 6.22155 27.6429 6.22155H6.92768V43.6149H13.1793V14.3911L12.5754 12.8229C12.4906 12.611 12.5224 12.3672 12.6495 12.1765C12.7767 11.9858 12.9886 11.8798 13.2217 11.8798L33.1952 11.848C33.3754 11.848 33.5555 11.9222 33.6827 12.0494C33.8098 12.1765 33.884 12.3566 33.884 12.5368V17.1249C33.884 17.358 33.7674 17.5699 33.5767 17.697C33.386 17.8242 33.1423 17.856 32.9303 17.7712L31.3833 17.1461H18.4668V22.2004H29.1793C29.5608 22.2004 29.8681 22.5076 29.8681 22.8891V27.4772C29.8681 27.7103 29.7515 27.9222 29.5608 28.0494C29.3701 28.1765 29.1264 28.2083 28.9144 28.1129L27.378 27.4878H18.4668V44.1129L20.2151 47.8957C20.3211 48.1076 20.2999 48.3619 20.1727 48.5633C20.0456 48.7646 19.823 48.8811 19.5899 48.8811H0.686623C0.45351 48.8811 0.241589 48.7646 0.114437 48.5739C-0.0127152 48.3831 -0.0339073 48.1394 0.0508609 47.9275L1.62967 44.1341V5.65996L0.0508609 1.85599C-0.0339073 1.64407 -0.0127152 1.40036 0.114437 1.20963C0.241589 1.0189 0.464106 0.902344 0.686623 0.902344H27.6323C31.7012 0.902344 35.2297 1.66526 38.1012 3.1593C40.5913 4.45201 42.5939 6.29572 44.0562 8.63744C46.4403 12.4308 46.7899 16.6268 46.7899 18.799C46.7899 21.4163 46.3237 23.7262 45.3595 25.8348C44.2575 28.2613 42.5197 30.3699 40.1992 32.1076L50.5091 47.8321C50.6469 48.0441 50.6575 48.3196 50.5409 48.5421C50.4244 48.7646 50.1913 48.9023 49.937 48.9023Z" fill="#D0D0CE"/>
</svg>
