<svg width="24" height="24" viewBox="0 0 24 24" fill="none" xmlns="http://www.w3.org/2000/svg">
<g id="Icon" clip-path="url(#clip0_6573_19012)">
<path id="Vector" d="M2.25 14.4377C2.25 15.2135 2.55817 15.9574 3.10671 16.506C3.65526 17.0545 4.39924 17.3627 5.175 17.3627C5.95076 17.3627 6.69474 17.0545 7.24329 16.506C7.79183 15.9574 8.1 15.2135 8.1 14.4377C8.1 13.6619 7.79183 12.918 7.24329 12.3694C6.69474 11.8209 5.95076 11.5127 5.175 11.5127C4.39924 11.5127 3.65526 11.8209 3.10671 12.3694C2.55817 12.918 2.25 13.6619 2.25 14.4377Z" stroke="#337ADD" stroke-linecap="round" stroke-linejoin="round"/>
<path id="Vector_2" d="M9.5626 23.2127C9.5626 22.0491 9.10034 20.9331 8.27753 20.1103C7.45471 19.2874 6.33873 18.8252 5.1751 18.8252C4.01146 18.8252 2.89548 19.2874 2.07267 20.1103C1.24985 20.9331 0.787598 22.0491 0.787598 23.2127" stroke="#337ADD" stroke-linecap="round" stroke-linejoin="round"/>
<path id="Vector_3" d="M10.5376 15.6006C10.5376 16.2519 10.7964 16.8766 11.257 17.3372C11.7175 17.7978 12.3422 18.0566 12.9936 18.0566C13.645 18.0566 14.2697 17.7978 14.7303 17.3372C15.1909 16.8766 15.4496 16.2519 15.4496 15.6006C15.4496 14.9492 15.1909 14.3245 14.7303 13.8639C14.2697 13.4033 13.645 13.1445 12.9936 13.1445C12.3422 13.1445 11.7175 13.4033 11.257 13.8639C10.7964 14.3245 10.5376 14.9492 10.5376 15.6006Z" stroke="#337ADD" stroke-linecap="round" stroke-linejoin="round"/>
<path id="Vector_4" d="M16.68 23.2127C16.6798 22.5457 16.4986 21.8913 16.1556 21.3193C15.8127 20.7472 15.3209 20.279 14.7327 19.9645C14.1445 19.65 13.4819 19.5011 12.8158 19.5337C12.1496 19.5662 11.5047 19.779 10.95 20.1493" stroke="#337ADD" stroke-linecap="round" stroke-linejoin="round"/>
<path id="Vector_5" d="M18.4836 17.677C18.4836 17.898 18.5272 18.1168 18.6117 18.321C18.6963 18.5252 18.8203 18.7107 18.9765 18.8669C19.1328 19.0232 19.3183 19.1472 19.5225 19.2317C19.7267 19.3163 19.9455 19.3598 20.1665 19.3598C20.3875 19.3598 20.6063 19.3163 20.8105 19.2317C21.0147 19.1472 21.2002 19.0232 21.3564 18.8669C21.5127 18.7107 21.6367 18.5252 21.7212 18.321C21.8058 18.1168 21.8493 17.898 21.8493 17.677C21.8493 17.2307 21.672 16.8026 21.3564 16.487C21.0409 16.1714 20.6128 15.9941 20.1665 15.9941C19.7202 15.9941 19.2921 16.1714 18.9765 16.487C18.6609 16.8026 18.4836 17.2307 18.4836 17.677Z" stroke="#337ADD" stroke-linecap="round" stroke-linejoin="round"/>
<path id="Vector_6" d="M22.69 23.2122C22.6899 22.7552 22.5658 22.3069 22.3309 21.915C22.0959 21.5231 21.759 21.2023 21.3561 20.9868C20.9532 20.7713 20.4993 20.6692 20.0429 20.6915C19.5865 20.7137 19.1447 20.8594 18.7646 21.113" stroke="#337ADD" stroke-linecap="round" stroke-linejoin="round"/>
<path id="Vector_7" d="M3.7124 0.787109V9.56211" stroke="#337ADD" stroke-linecap="round" stroke-linejoin="round"/>
<path id="Vector_8" d="M16.3875 5.66211H23.2125L20.2875 8.09961L23.2125 10.5371H14.4375C13.9204 10.5371 13.4244 10.3317 13.0587 9.96597C12.693 9.60027 12.4875 9.10428 12.4875 8.58711V7.61211" stroke="#337ADD" stroke-linecap="round" stroke-linejoin="round"/>
<path id="Vector_9" d="M15.8999 2.24961V7.12461C15.8999 6.73673 15.7458 6.36474 15.4715 6.09047C15.1973 5.81619 14.8253 5.66211 14.4374 5.66211H3.7124V0.787109H14.4374C14.8253 0.787109 15.1973 0.941194 15.4715 1.21547C15.7458 1.48974 15.8999 1.86173 15.8999 2.24961Z" stroke="#2772DB" stroke-linecap="round" stroke-linejoin="round"/>
</g>
<defs>
<clipPath id="clip0_6573_19012">
<rect width="24" height="24" fill="white"/>
</clipPath>
</defs>
</svg>
