<svg width="25" height="17" viewBox="0 0 25 17" fill="none" xmlns="http://www.w3.org/2000/svg">
<path d="M2.75 1.875C1.97656 1.875 1.375 2.51953 1.375 3.25V14.25C1.375 15.0234 1.97656 15.625 2.75 15.625H13.75C14.4805 15.625 15.125 15.0234 15.125 14.25V3.25C15.125 2.51953 14.4805 1.875 13.75 1.875H2.75ZM0 3.25C0 1.74609 1.20312 0.5 2.75 0.5H13.75C15.2539 0.5 16.5 1.74609 16.5 3.25V5.3125V12.2305V14.25C16.5 15.7969 15.2539 17 13.75 17H2.75C1.20312 17 0 15.7969 0 14.25V3.25ZM22.3008 15.4531L17.875 13.0039V11.4141L22.9453 14.25C22.9883 14.25 23.0312 14.293 23.0742 14.293C23.2461 14.293 23.375 14.1641 23.375 13.9922V3.55078C23.375 3.37891 23.2461 3.25 23.0742 3.25C23.0312 3.25 22.9883 3.29297 22.9453 3.29297L17.875 6.12891V4.53906L22.3008 2.08984C22.5586 1.96094 22.8164 1.875 23.0742 1.875C23.9766 1.875 24.75 2.64844 24.75 3.55078V13.9922C24.75 14.8945 23.9766 15.625 23.0742 15.625C22.8164 15.625 22.5586 15.582 22.3008 15.4531Z" fill="#2772DB"/>
</svg>
