<svg width="16" height="16" viewBox="0 0 16 16" fill="none" xmlns="http://www.w3.org/2000/svg">
<path d="M8 1.5C4.40625 1.5 1.5 4.4375 1.5 8C1.5 11.5938 4.40625 14.5 8 14.5H9V16H8C3.5625 16 0 12.4375 0 8C0 3.59375 3.5625 0 8 0C12.4062 0 16 3.59375 16 8V11V11.75H15.25H13.75C12.5938 11.75 11.5625 11.2188 10.9375 10.3438C10.25 11.2188 9.1875 11.75 8 11.75C5.90625 11.75 4.25 10.0938 4.25 8C4.25 5.9375 5.90625 4.25 8 4.25C8.84375 4.25 9.59375 4.53125 10.25 5V4.75H11.75V5.5V8V8.25C11.75 9.375 12.625 10.25 13.75 10.25H14.5V8C14.5 4.4375 11.5625 1.5 8 1.5ZM10.25 8C10.25 7.21875 9.8125 6.46875 9.125 6.0625C8.40625 5.65625 7.5625 5.65625 6.875 6.0625C6.15625 6.46875 5.75 7.21875 5.75 8C5.75 8.8125 6.15625 9.5625 6.875 9.96875C7.5625 10.375 8.40625 10.375 9.125 9.96875C9.8125 9.5625 10.25 8.8125 10.25 8Z" fill="#337ADD"/>
</svg>
