<svg width="16" height="17" viewBox="0 0 16 17" fill="none" xmlns="http://www.w3.org/2000/svg">
<path d="M8 1.87598C4.40625 1.87598 1.5 4.81348 1.5 8.37598C1.5 11.9697 4.40625 14.876 8 14.876H9V16.376H8C3.5625 16.376 0 12.8135 0 8.37598C0 3.96973 3.5625 0.375977 8 0.375977C12.4062 0.375977 16 3.96973 16 8.37598V11.376V12.126H15.25H13.75C12.5938 12.126 11.5625 11.5947 10.9375 10.7197C10.25 11.5947 9.1875 12.126 8 12.126C5.90625 12.126 4.25 10.4697 4.25 8.37598C4.25 6.31348 5.90625 4.62598 8 4.62598C8.84375 4.62598 9.59375 4.90723 10.25 5.37598V5.12598H11.75V5.87598V8.37598V8.62598C11.75 9.75098 12.625 10.626 13.75 10.626H14.5V8.37598C14.5 4.81348 11.5625 1.87598 8 1.87598ZM10.25 8.37598C10.25 7.59473 9.8125 6.84473 9.125 6.43848C8.40625 6.03223 7.5625 6.03223 6.875 6.43848C6.15625 6.84473 5.75 7.59473 5.75 8.37598C5.75 9.18848 6.15625 9.93848 6.875 10.3447C7.5625 10.751 8.40625 10.751 9.125 10.3447C9.8125 9.93848 10.25 9.18848 10.25 8.37598Z" fill="#2772DB"/>
</svg>
