<svg width="12" height="11" viewBox="0 0 12 11" fill="none" xmlns="http://www.w3.org/2000/svg">
<path opacity="0.4" d="M10.6875 2.49512L7.40625 5.77637L10.6875 9.08887C11.0938 9.46387 11.0938 10.1201 10.6875 10.4951C10.3125 10.9014 9.65625 10.9014 9.28125 10.4951L6 7.21387L2.6875 10.4951C2.3125 10.9014 1.65625 10.9014 1.28125 10.4951C0.875 10.1201 0.875 9.46387 1.28125 9.08887L4.5625 5.77637L1.28125 2.49512C0.875 2.12012 0.875 1.46387 1.28125 1.08887C1.65625 0.682617 2.3125 0.682617 2.6875 1.08887L6 4.37012L9.28125 1.08887C9.65625 0.682617 10.3125 0.682617 10.6875 1.08887C11.0938 1.46387 11.0938 2.12012 10.6875 2.49512Z" fill="black"/>
</svg>
