<svg width="32" height="24" viewBox="0 0 32 24" fill="none" xmlns="http://www.w3.org/2000/svg">
<path d="M26.136 24C21.2547 24 18.136 19.8644 18.136 13.7627C18.136 10.2373 19.4242 6.57627 22.0682 3.8644C24.6445 1.22034 27.6953 0 30.3394 0C31.3564 0 31.7631 0.406778 31.7631 1.08475V2.64407C31.7631 3.25424 31.6275 3.72881 30.7462 3.72881C29.1869 3.72881 27.492 4.33898 26.0682 5.49153C24.5089 6.77966 23.7631 8.40678 23.7631 10.0339C23.7631 12.5424 25.4581 12.7458 27.153 13.0169C29.7292 13.3559 31.8309 14.4407 31.8309 18.1695C31.8309 21.7627 29.5936 24 26.136 24ZM8.16992 24C3.28857 24 0.169922 19.8644 0.169922 13.7627C0.169922 10.2373 1.45806 6.57627 4.10212 3.8644C6.6784 1.22034 9.72924 0 12.3733 0C13.3903 0 13.797 0.406778 13.797 1.08475V2.64407C13.797 3.25424 13.6614 3.72881 12.7801 3.72881C11.2208 3.72881 9.52585 4.33898 8.10213 5.49153C6.5428 6.77966 5.79704 8.40678 5.79704 10.0339C5.79704 12.5424 7.49196 12.7458 9.18687 13.0169C11.7631 13.3559 13.8648 14.4407 13.8648 18.1695C13.8648 21.7627 11.6275 24 8.16992 24Z" fill="white"/>
</svg>
