<svg width="16" height="17" viewBox="0 0 16 17" fill="none" xmlns="http://www.w3.org/2000/svg">
<path d="M8 1.875C4.40625 1.875 1.5 4.8125 1.5 8.375C1.5 11.9688 4.40625 14.875 8 14.875H9V16.375H8C3.5625 16.375 0 12.8125 0 8.375C0 3.96875 3.5625 0.375 8 0.375C12.4062 0.375 16 3.96875 16 8.375V11.375V12.125H15.25H13.75C12.5938 12.125 11.5625 11.5938 10.9375 10.7188C10.25 11.5938 9.1875 12.125 8 12.125C5.90625 12.125 4.25 10.4688 4.25 8.375C4.25 6.3125 5.90625 4.625 8 4.625C8.84375 4.625 9.59375 4.90625 10.25 5.375V5.125H11.75V5.875V8.375V8.625C11.75 9.75 12.625 10.625 13.75 10.625H14.5V8.375C14.5 4.8125 11.5625 1.875 8 1.875ZM10.25 8.375C10.25 7.59375 9.8125 6.84375 9.125 6.4375C8.40625 6.03125 7.5625 6.03125 6.875 6.4375C6.15625 6.84375 5.75 7.59375 5.75 8.375C5.75 9.1875 6.15625 9.9375 6.875 10.3438C7.5625 10.75 8.40625 10.75 9.125 10.3438C9.8125 9.9375 10.25 9.1875 10.25 8.375Z" fill="#337ADD"/>
</svg>
