<svg width="14" height="17" viewBox="0 0 14 17" fill="none" xmlns="http://www.w3.org/2000/svg">
<path d="M9.5 5C9.5 4.125 9 3.3125 8.25 2.84375C7.46875 2.40625 6.5 2.40625 5.75 2.84375C4.96875 3.3125 4.5 4.125 4.5 5C4.5 5.90625 4.96875 6.71875 5.75 7.1875C6.5 7.625 7.46875 7.625 8.25 7.1875C9 6.71875 9.5 5.90625 9.5 5ZM3 5C3 3.59375 3.75 2.28125 5 1.5625C6.21875 0.84375 7.75 0.84375 9 1.5625C10.2188 2.28125 11 3.59375 11 5C11 6.4375 10.2188 7.75 9 8.46875C7.75 9.1875 6.21875 9.1875 5 8.46875C3.75 7.75 3 6.4375 3 5ZM2.03125 15.5H11.9688L10.875 12H3.09375L2.03125 15.5ZM2 10.5H12L13.5312 15.5L14 17H12.4062H1.5625H0L0.4375 15.5L2 10.5Z" fill="#337ADD"/>
</svg>
